<svg id="Layer_1" data-name="Layer 1" xmlns="http://www.w3.org/2000/svg" viewBox="0 0 1592.09 229.17"><defs><style>.cls-1{fill:#231f20;}</style></defs><title>CH_logo_long</title><path class="cls-1" d="M782.23,111.93V254.49H977.11V111.93L879.67,25.32Zm163.56,111.4H813.55V125.88L879.67,67.1l66.12,58.78v97.46ZM851,160.68a28.65,28.65,0,1,0,28.65-28.5A28.58,28.58,0,0,0,851,160.68ZM87,138.35c11.8,0,21.78,5.29,26.93,14.22l22.94-13.23C126.7,123,108.08,112.55,87,112.55c-35.08,0-60.51,26.13-60.51,60.19S51.9,232.93,87,232.93c21.28,0,39.89-10.42,49.87-26.79L113.9,192.91c-5,8.93-15.13,14.22-26.93,14.22-20.61,0-33.91-13.73-33.91-34.39S66.36,138.35,87,138.35Zm88.94,46.3h41.56V159.51H175.91V140.33h45.71V114.87H149.31V230.61h73.14V205.15H175.91v-20.5Zm126.34-6.95-44.88-62.83H237.41V230.61H264V167.78l44.88,62.83h19.95V114.87h-26.6V177.7Zm38.23-37.37H370.4v90.28H397V140.33h29.92V114.87H340.48v25.46ZM525,154.55a39.69,39.69,0,0,0-39.9-39.68H438.55V230.61h26.6v-38h12.63l21.94,38h28.59l-24.77-42.5C516.35,181.67,525,168.77,525,154.55Zm-39.9,14.88H465.15V139.67H485.1c7.31,0,13.3,6.45,13.3,14.88S492.41,169.43,485.1,169.43Zm85.27-54.56L530.81,230.61H559.9l5.82-18.19h43.22l5.82,18.19h29.09L604.29,114.87H570.37Zm3.33,72.75,13.63-42.5L601,187.62H573.7Zm106.72-72.75h-26.6V230.61H722V205.15H680.42V114.87Zm424.35,43.82H1068.1V114.25h-26.67V230.32h26.67V184.23h36.67v46.09h26.67V114.25h-26.67v44.44Zm102.32-46.76c-33.5,0-60.67,26.2-60.67,60.36s27.17,60.35,60.67,60.35,60.68-26.2,60.68-60.35S1240.6,111.93,1207.09,111.93Zm0,94.84c-19,0-34-13.76-34-34.49s15-34.49,34-34.49,34,13.76,34,34.49S1226.09,206.78,1207.09,206.78ZM1325.25,161c-18.17-5.47-21-9.12-21-14.42,0-4.65,4.17-8.79,12.5-8.79,10.67,0,16.17,5.14,20.17,13.43l22.5-13.1c-8.5-17.08-23.5-26.2-42.67-26.2-20.17,0-39.17,12.93-39.17,35.32,0,22.22,17,30.51,34.34,35.32,17.5,4.8,24.17,7.62,24.17,14.75,0,4.48-3.17,9.45-15.84,9.45-13.17,0-20.34-6.47-24.5-16.08l-23,13.26c6.5,17.08,22.17,28.68,46.67,28.68,25.34,0,43.34-13.26,43.34-35.65C1362.75,172.45,1342.91,166.32,1325.25,161Zm38.32-21.22h30v90.53h26.67V139.79h30V114.25h-86.68v25.53Zm125,44.44h41.67V159h-41.67V139.79h45.84V114.25h-72.51V230.32h73.34V204.79h-46.68V184.23Zm88.32,20.56V114.25h-26.67V230.32h68.34V204.79h-41.67Z" transform="translate(-26.46 -25.32)"/></svg>