<svg id="svg" version="1.1" xmlns="http://www.w3.org/2000/svg" xmlns:xlink="http://www.w3.org/1999/xlink" width="400"
     height="219.375" viewBox="0, 0, 400,219.375">
  <g id="svgg">
    <path id="path0"
          d="M195.565 6.528 C 193.174 8.670,189.000 12.397,186.290 14.811 C 183.579 17.224,181.205 19.347,181.014 19.528 C 180.823 19.709,179.438 20.954,177.936 22.295 C 171.625 27.929,168.034 31.137,165.606 33.310 L 163.028 35.619 163.028 62.790 L 163.028 89.962 200.000 89.962 L 236.972 89.962 236.972 62.841 L 236.972 35.721 236.259 35.030 C 235.867 34.650,234.756 33.638,233.790 32.781 C 230.751 30.082,221.385 21.732,220.549 20.975 C 218.730 19.329,213.062 14.261,208.108 9.851 C 203.329 5.597,200.699 3.241,200.368 2.917 C 200.209 2.761,200.041 2.633,199.995 2.633 C 199.949 2.633,197.955 4.386,195.565 6.528 M201.519 19.790 C 202.252 20.417,203.011 21.083,203.204 21.271 C 203.852 21.900,205.463 23.350,208.338 25.891 C 209.907 27.278,211.585 28.769,212.068 29.204 C 213.107 30.141,217.502 34.079,218.400 34.878 C 218.745 35.185,219.246 35.634,219.512 35.875 C 219.779 36.116,221.150 37.346,222.560 38.608 L 225.123 40.902 225.123 59.508 L 225.123 78.113 200.000 78.113 L 174.877 78.113 174.877 59.480 L 174.877 40.848 178.771 37.375 C 180.913 35.465,182.715 33.850,182.776 33.786 C 182.836 33.721,183.823 32.838,184.970 31.824 C 186.116 30.809,187.104 29.923,187.164 29.855 C 187.224 29.787,188.113 28.991,189.139 28.086 C 190.165 27.180,191.053 26.391,191.114 26.330 C 191.266 26.178,193.080 24.553,195.279 22.600 C 196.298 21.695,197.702 20.436,198.399 19.803 C 199.951 18.393,199.884 18.393,201.519 19.790 M196.769 43.880 C 185.357 47.465,187.427 64.270,199.357 64.888 C 212.275 65.556,215.235 47.771,202.868 43.793 C 201.412 43.324,198.400 43.367,196.769 43.880 M88.097 118.284 C 76.598 119.456,69.262 127.395,67.942 140.099 C 67.297 146.307,70.789 154.372,76.030 158.776 C 85.723 166.922,102.100 165.040,108.956 154.992 C 109.833 153.708,110.224 154.106,105.205 151.176 C 100.861 148.640,101.174 148.722,100.359 149.900 C 95.258 157.272,81.704 154.856,78.701 146.039 C 74.875 134.806,84.415 124.818,95.337 128.620 C 97.506 129.375,100.933 132.052,100.933 132.991 C 100.933 133.328,108.888 129.004,109.685 128.235 C 109.830 128.095,107.988 125.770,106.777 124.565 C 103.074 120.881,98.536 118.788,93.142 118.276 C 90.510 118.027,90.628 118.027,88.097 118.284 M114.756 140.975 L 114.756 163.028 128.470 163.028 L 142.183 163.028 142.183 158.313 L 142.183 153.598 133.461 153.541 L 124.739 153.483 124.739 149.534 L 124.739 145.584 132.474 145.527 L 140.208 145.469 140.208 140.754 L 140.208 136.039 132.419 136.039 L 124.630 136.039 124.630 132.312 L 124.630 128.584 133.242 128.527 L 141.854 128.470 141.854 123.752 L 141.854 119.035 128.305 118.978 L 114.756 118.922 114.756 140.975 M148.108 140.976 L 148.108 163.028 153.044 163.028 L 157.981 163.028 157.981 151.302 C 157.981 144.853,158.063 139.526,158.162 139.464 C 158.262 139.403,158.829 140.041,159.424 140.882 C 160.018 141.722,161.788 144.215,163.357 146.421 C 166.677 151.088,166.330 150.600,171.293 157.597 L 175.144 163.028 178.960 163.028 L 182.776 163.028 182.776 140.972 L 182.776 118.917 177.784 118.976 L 172.792 119.035 172.682 130.773 C 172.610 138.486,172.497 142.476,172.353 142.407 C 172.233 142.349,170.908 140.572,169.410 138.458 C 167.912 136.343,166.371 134.169,165.987 133.626 C 165.315 132.678,162.750 129.081,157.811 122.161 L 155.500 118.925 151.804 118.925 L 148.108 118.925 148.108 140.976 M187.262 119.205 C 187.203 119.359,187.181 121.507,187.214 123.977 L 187.274 128.470 192.869 128.579 L 198.464 128.689 198.520 145.858 L 198.576 163.028 203.622 163.028 L 208.667 163.028 208.667 145.804 L 208.667 128.579 214.262 128.579 L 219.857 128.579 219.857 123.752 L 219.857 118.925 203.614 118.925 C 190.638 118.925,187.348 118.981,187.262 119.205 M224.465 140.955 L 224.465 163.028 229.399 163.028 L 234.333 163.028 234.391 155.842 L 234.449 148.656 236.878 148.594 L 239.308 148.533 241.632 152.544 C 242.910 154.750,244.285 157.151,244.688 157.880 C 245.090 158.608,245.913 160.064,246.517 161.115 L 247.614 163.025 252.958 163.027 C 257.272 163.028,258.281 162.973,258.192 162.741 C 258.132 162.583,256.412 159.596,254.370 156.103 C 252.329 152.611,250.590 149.605,250.506 149.424 C 250.422 149.243,250.112 148.700,249.816 148.217 C 249.083 147.021,249.100 146.960,250.411 146.080 C 260.996 138.979,258.704 123.695,246.444 119.625 L 244.761 119.066 234.613 118.974 L 224.465 118.881 224.465 140.955 M274.429 119.306 C 274.133 120.295,270.717 130.276,270.542 130.664 C 270.433 130.905,270.249 131.448,270.133 131.871 C 270.017 132.293,269.070 135.107,268.029 138.124 C 266.988 141.141,265.502 145.485,264.728 147.778 C 263.953 150.071,262.612 154.021,261.747 156.555 C 260.882 159.089,260.043 161.583,259.883 162.095 L 259.593 163.028 265.028 163.028 L 270.463 163.028 270.969 161.437 C 271.248 160.562,271.742 159.057,272.068 158.091 L 272.661 156.336 280.949 156.336 L 289.236 156.336 290.107 159.078 C 290.586 160.587,291.082 162.093,291.209 162.425 L 291.441 163.028 296.790 163.028 C 300.270 163.028,302.139 162.950,302.139 162.805 C 302.139 162.559,301.661 161.127,297.747 149.643 C 296.286 145.359,294.657 140.570,294.126 139.002 C 292.847 135.226,288.770 123.257,287.959 120.900 L 287.318 119.035 280.932 118.976 C 274.990 118.922,274.537 118.945,274.429 119.306 M306.308 140.976 L 306.308 163.028 319.144 163.028 L 331.980 163.028 331.980 158.313 L 331.980 153.599 324.136 153.541 L 316.292 153.483 316.236 136.204 L 316.179 118.925 311.244 118.925 L 306.308 118.925 306.308 140.976 M244.323 128.969 C 247.979 130.964,248.151 136.711,244.625 139.046 L 243.697 139.660 239.073 139.660 L 234.449 139.660 234.390 134.288 C 234.357 131.334,234.379 128.791,234.438 128.638 C 234.683 127.999,243.058 128.279,244.323 128.969 M281.602 132.366 C 281.831 133.119,282.288 134.575,282.618 135.601 C 282.948 136.626,283.638 138.799,284.152 140.428 C 284.666 142.057,285.308 144.081,285.579 144.926 C 285.850 145.771,286.027 146.536,285.974 146.626 C 285.828 146.874,276.078 146.829,275.924 146.581 C 275.796 146.374,275.927 145.895,277.128 142.183 C 277.460 141.157,278.296 138.541,278.985 136.369 C 280.682 131.023,280.693 130.993,280.955 130.995 C 281.081 130.996,281.372 131.613,281.602 132.366 M149.424 172.664 C 126.932 176.661,123.241 207.316,144.158 216.403 C 161.224 223.818,179.815 208.556,175.764 190.455 C 173.027 178.224,161.593 170.501,149.424 172.664 M191.772 172.658 C 184.100 174.205,179.676 179.659,180.227 186.893 C 180.727 193.465,184.332 196.620,194.844 199.687 C 196.594 200.198,198.173 200.693,198.354 200.788 C 198.535 200.882,199.165 201.187,199.754 201.465 C 202.962 202.981,203.223 206.263,200.262 207.846 C 198.642 208.712,193.690 208.581,191.747 207.621 C 190.088 206.802,188.142 204.905,187.480 203.462 C 186.958 202.326,187.097 202.325,185.153 203.474 C 183.342 204.543,181.914 205.353,180.143 206.314 C 178.152 207.394,178.166 207.359,179.030 209.058 C 185.406 221.590,207.895 221.410,211.782 208.795 C 214.250 200.789,210.213 194.819,200.219 191.692 C 191.916 189.095,190.236 188.050,190.236 185.484 C 190.236 180.433,199.413 181.094,202.190 186.345 C 202.429 186.797,202.687 187.142,202.762 187.111 C 202.838 187.080,204.694 186.018,206.885 184.750 C 211.421 182.128,211.342 182.247,209.925 180.187 C 205.698 174.043,198.896 171.221,191.772 172.658 M90.400 195.278 L 90.400 217.444 95.445 217.444 L 100.489 217.444 100.546 208.612 L 100.603 199.781 107.390 199.722 C 112.674 199.677,114.216 199.726,114.354 199.942 C 114.450 200.095,114.531 204.095,114.533 208.832 L 114.536 217.444 119.583 217.444 L 124.630 217.444 124.630 195.416 C 124.630 175.531,124.596 173.375,124.283 173.254 C 124.092 173.181,121.821 173.121,119.236 173.121 L 114.536 173.121 114.536 181.569 L 114.536 190.016 107.518 190.016 L 100.499 190.016 100.441 181.624 L 100.384 173.231 95.392 173.172 L 90.400 173.113 90.400 195.278 M212.836 177.948 L 212.836 182.776 218.408 182.776 C 223.286 182.776,223.996 182.819,224.113 183.123 C 224.186 183.314,224.246 191.114,224.246 200.457 L 224.246 217.444 229.183 217.444 L 234.120 217.444 234.120 200.457 C 234.120 191.114,234.180 183.314,234.253 183.123 C 234.369 182.819,235.079 182.776,239.958 182.776 L 245.529 182.776 245.529 177.948 L 245.529 173.121 229.183 173.121 L 212.836 173.121 212.836 177.948 M250.137 195.281 L 250.137 217.444 263.961 217.444 L 277.784 217.444 277.784 212.617 L 277.784 207.789 269.002 207.789 L 260.220 207.789 260.280 203.785 L 260.340 199.781 268.184 199.723 L 276.029 199.665 276.029 195.063 L 276.029 190.461 268.184 190.403 L 260.340 190.346 260.280 186.561 L 260.220 182.776 268.897 182.776 L 277.573 182.776 277.514 178.003 L 277.455 173.231 263.796 173.174 L 250.137 173.118 250.137 195.281 M283.859 173.263 C 283.776 173.346,283.708 183.321,283.708 195.429 L 283.708 217.444 296.658 217.444 L 309.608 217.444 309.549 212.671 L 309.490 207.899 301.647 207.841 L 293.804 207.784 293.748 190.507 L 293.692 173.231 288.850 173.172 C 286.188 173.140,283.941 173.181,283.859 173.263 M156.911 182.549 C 168.993 185.897,169.583 203.406,157.762 207.807 C 154.060 209.185,148.469 208.344,145.378 205.944 C 133.996 197.106,143.064 178.712,156.911 182.549 "
          stroke="none" fill="#fafafa" fill-rule="evenodd"></path>
  </g>
</svg>