<svg xmlns="http://www.w3.org/2000/svg" width="400" height="219.375" viewBox="0 0 400 219.375"><path d="M195.565 6.528a5361.34 5361.34 0 01-9.275 8.283 930.614 930.614 0 00-5.276 4.717c-.191.181-1.576 1.426-3.078 2.767-6.311 5.634-9.902 8.842-12.33 11.015l-2.578 2.309v54.343h73.944V35.721l-.713-.691c-.392-.38-1.503-1.392-2.469-2.249a6219.598 6219.598 0 01-13.241-11.806 3070.482 3070.482 0 00-12.441-11.124c-4.779-4.254-7.409-6.61-7.74-6.934-.159-.156-.327-.284-.373-.284-.046 0-2.04 1.753-4.43 3.895m5.954 13.262a59.312 59.312 0 011.685 1.481c.648.629 2.259 2.079 5.134 4.62a839.864 839.864 0 013.73 3.313c1.039.937 5.434 4.875 6.332 5.674a1783.712 1783.712 0 004.16 3.73l2.563 2.294v37.211h-50.246V40.848l3.894-3.473a583.494 583.494 0 004.005-3.589c.06-.065 1.047-.948 2.194-1.962 1.146-1.015 2.134-1.901 2.194-1.969.06-.068.949-.864 1.975-1.769a207.962 207.962 0 001.975-1.756c.152-.152 1.966-1.777 4.165-3.73a468.974 468.974 0 003.12-2.797c1.552-1.41 1.485-1.41 3.12-.013m-4.75 24.09c-11.412 3.585-9.342 20.39 2.588 21.008 12.918.668 15.878-17.117 3.511-21.095-1.456-.469-4.468-.426-6.099.087M88.097 118.284c-11.499 1.172-18.835 9.111-20.155 21.815-.645 6.208 2.847 14.273 8.088 18.677 9.693 8.146 26.07 6.264 32.926-3.784.877-1.284 1.268-.886-3.751-3.816-4.344-2.536-4.031-2.454-4.846-1.276-5.101 7.372-18.655 4.956-21.658-3.861-3.826-11.233 5.714-21.221 16.636-17.419 2.169.755 5.596 3.432 5.596 4.371 0 .337 7.955-3.987 8.752-4.756.145-.14-1.697-2.465-2.908-3.67-3.703-3.684-8.241-5.777-13.635-6.289-2.632-.249-2.514-.249-5.045.008m26.659 22.691v22.053h27.427v-9.43l-8.722-.057-8.722-.058v-7.899l7.735-.057 7.734-.058v-9.43H124.63v-7.455l8.612-.057 8.612-.057v-9.435l-13.549-.057-13.549-.056v22.053m33.352.001v22.052h9.873v-11.726c0-6.449.082-11.776.181-11.838.1-.061.667.577 1.262 1.418.594.84 2.364 3.333 3.933 5.539 3.32 4.667 2.973 4.179 7.936 11.176l3.851 5.431h7.632v-44.111l-4.992.059-4.992.059-.11 11.738c-.072 7.713-.185 11.703-.329 11.634-.12-.058-1.445-1.835-2.943-3.949l-3.423-4.832c-.672-.948-3.237-4.545-8.176-11.465l-2.311-3.236h-7.392v22.051m39.154-21.771c-.059.154-.081 2.302-.048 4.772l.06 4.493 5.595.109 5.595.11.056 17.169.056 17.17h10.091v-34.449h11.19v-9.654h-16.243c-12.976 0-16.266.056-16.352.28m37.203 21.75v22.073h9.868l.058-7.186.058-7.186 2.429-.062 2.43-.061 2.324 4.011a477.226 477.226 0 013.056 5.336 271.23 271.23 0 001.829 3.235l1.097 1.91 5.344.002c4.314.001 5.323-.054 5.234-.286-.06-.158-1.78-3.145-3.822-6.638-2.041-3.492-3.78-6.498-3.864-6.679a18.123 18.123 0 00-.69-1.207c-.733-1.196-.716-1.257.595-2.137 10.585-7.101 8.293-22.385-3.967-26.455l-1.683-.559-10.148-.092-10.148-.093v22.074m49.964-21.649c-.296.989-3.712 10.97-3.887 11.358-.109.241-.293.784-.409 1.207-.116.422-1.063 3.236-2.104 6.253a1880.11 1880.11 0 00-3.301 9.654 3710.97 3710.97 0 01-2.981 8.777 450.243 450.243 0 00-1.864 5.54l-.29.933h10.87l.506-1.591c.279-.875.773-2.38 1.099-3.346l.593-1.755h16.575l.871 2.742c.479 1.509.975 3.015 1.102 3.347l.232.603h5.349c3.48 0 5.349-.078 5.349-.223 0-.246-.478-1.678-4.392-13.162a7415.41 7415.41 0 01-3.621-10.641 8320.034 8320.034 0 00-6.167-18.102l-.641-1.865-6.386-.059c-5.942-.054-6.395-.031-6.503.33m31.879 21.67v22.052h25.672v-9.429l-7.844-.058-7.844-.058-.056-17.279-.057-17.279h-9.871v22.051m-61.985-12.007c3.656 1.995 3.828 7.742.302 10.077l-.928.614h-9.248l-.059-5.372c-.033-2.954-.011-5.497.048-5.65.245-.639 8.62-.359 9.885.331m37.279 3.397c.229.753.686 2.209 1.016 3.235.33 1.025 1.02 3.198 1.534 4.827a1336.94 1336.94 0 001.427 4.498c.271.845.448 1.61.395 1.7-.146.248-9.896.203-10.05-.045-.128-.207.003-.686 1.204-4.398.332-1.026 1.168-3.642 1.857-5.814 1.697-5.346 1.708-5.376 1.97-5.374.126.001.417.618.647 1.371m-132.178 40.298c-22.492 3.997-26.183 34.652-5.266 43.739 17.066 7.415 35.657-7.847 31.606-25.948-2.737-12.231-14.171-19.954-26.34-17.791m42.348-.006c-7.672 1.547-12.096 7.001-11.545 14.235.5 6.572 4.105 9.727 14.617 12.794 1.75.511 3.329 1.006 3.51 1.101.181.094.811.399 1.4.677 3.208 1.516 3.469 4.798.508 6.381-1.62.866-6.572.735-8.515-.225-1.659-.819-3.605-2.716-4.267-4.159-.522-1.136-.383-1.137-2.327.012a148.93 148.93 0 01-5.01 2.84c-1.991 1.08-1.977 1.045-1.113 2.744 6.376 12.532 28.865 12.352 32.752-.263 2.468-8.006-1.569-13.976-11.563-17.103-8.303-2.597-9.983-3.642-9.983-6.208 0-5.051 9.177-4.39 11.954.861.239.452.497.797.572.766.076-.031 1.932-1.093 4.123-2.361 4.536-2.622 4.457-2.503 3.04-4.563-4.227-6.144-11.029-8.966-18.153-7.529M90.4 195.278v22.166h10.089l.057-8.832.057-8.831 6.787-.059c5.284-.045 6.826.004 6.964.22.096.153.177 4.153.179 8.89l.003 8.612h10.094v-22.028c0-19.885-.034-22.041-.347-22.162-.191-.073-2.462-.133-5.047-.133h-4.7v16.895h-14.037l-.058-8.392-.057-8.393-4.992-.059-4.992-.059v22.165m122.436-17.33v4.828h5.572c4.878 0 5.588.043 5.705.347.073.191.133 7.991.133 17.334v16.987h9.874v-16.987c0-9.343.06-17.143.133-17.334.116-.304.826-.347 5.705-.347h5.571v-9.655h-32.693v4.827m37.301 17.333v22.163h27.647v-9.655H260.22l.06-4.004.06-4.004 7.844-.058 7.845-.058v-9.204l-7.845-.058-7.844-.057-.06-3.785-.06-3.785h17.353l-.059-4.773-.059-4.772-13.659-.057-13.659-.056v22.163m33.722-22.018c-.083.083-.151 10.058-.151 22.166v22.015h25.9l-.059-4.773-.059-4.772-7.843-.058-7.843-.057-.056-17.277-.056-17.276-4.842-.059c-2.662-.032-4.909.009-4.991.091m-126.948 9.286c12.082 3.348 12.672 20.857.851 25.258-3.702 1.378-9.293.537-12.384-1.863-11.382-8.838-2.314-27.232 11.533-23.395" fill="#fafafa" fill-rule="evenodd"/></svg>