<svg width="32" height="30" viewBox="0 0 32 30" xmlns="http://www.w3.org/2000/svg"><path d="M.915 17.038l13.577 6.102c1.199.566 1.717.566 3.017 0l13.576-6.102c.67-.313.915-1.782.915-2.573-.873.437-2.109 1.06-2.133 1.066L16 21.923 2.133 15.53A26.59 26.59 0 010 14.465c0 .774.194 2.19.915 2.573zM16 28.316L2.133 21.923c.048.03-1.227-.547-2.133-1.065 0 .773.194 2.189.915 2.572l13.577 6.103c1.199.566 1.717.566 3.017 0l13.576-6.103c.67-.312.915-1.781.915-2.572-.873.436-2.109 1.06-2.133 1.065L16 28.316zm0-26.637l13.867 7.458L16 14.98 2.133 9.137 16 1.679zM.915 10.644l13.577 6.104c1.199.565 1.717.565 3.017 0l13.576-6.104c1-.466 1.033-2.447 0-3.014L17.509.462c-1.067-.632-1.818-.6-3.017 0L.915 7.63c-1.033.666-1.066 2.449 0 3.014zM16 1.679c.1.117.074.025 0 0z" fill="#C1C9D3" fill-rule="evenodd"/></svg>