<svg version="1.1" id="Layer_1" xmlns="http://www.w3.org/2000/svg" x="0" y="0" viewBox="0 0 800 800" xml:space="preserve"><style>.st0{fill:#fff}</style><g id="XMLID_1_"><path class="st0" d="M495.2 354.3c0 3.6-.4 6.9-1.1 9.9-.8 3-3.6 4.9-8.4 5.7-6.4 0-10.3-3.3-11.8-9.9-1.3-24.9-14.5-39.1-39.6-42.7-7.4-1.3-11-4.4-11-9.5 0-5.8 2.4-9.3 7.2-10.3 2.5-.3 5.3-.4 8.4-.4 13.7 0 26.5 6.2 38.5 18.7 11.9 12.5 17.8 25.3 17.8 38.5z"/><path class="st0" d="M539.4 365c-.3.8-.4 2-.4 3.8v3.8c0 6.4-2.5 10.4-7.6 12.2-6.1 0-9.7-1.5-10.9-4.4-1.1-2.9-1.7-5.8-1.7-8.6V365c-4.3-28.4-13.1-49.6-26.5-63.4-13.3-13.8-35.9-24.1-67.6-30.7-9.7 0-14.5-3.1-14.5-9.1.8-7.6 2.5-11.7 5.3-12.2s4.8-.8 6.1-.8c4.8 0 9 .5 12.6 1.5 29.5 5.1 54.3 18.5 74.6 40.2 20.4 21.7 30.6 46.5 30.6 74.5z"/><path class="st0" d="M585.7 387c.4 1.8.6 3.2.6 4.2 0 2.3-.4 4.3-1.1 6.1-.5 3.8-3.7 5.7-9.5 5.7-5.1 0-7.9-1.7-8.4-5.1-.5-3.4-.8-6.4-.8-8.9l.8-7.6c-6.6-48-21.8-84.2-45.5-108.7s-59.6-40.2-107.6-47c-1.8-1-4.1-1.6-7-1.7-2.9-.1-5.5-.8-7.6-1.9-2.2-1.1-3.2-3.5-3.2-7.1 0-7.4 3.2-11 9.5-11 2.5 0 4.9.1 7.1.4 2.1.3 3.7.4 4.8.4 30.7 1.8 58.9 11 84.6 27.6 25.6 16.6 45.9 37.8 60.8 63.6 14.8 25.8 22.3 53.9 22.3 84.4-.4 2.6-.2 4.9.2 6.6zm-19.3 101.4c15.5 11.2 23.2 22.5 23.2 33.9 0 17.8-10.9 35.3-32.8 52.5-14.5 10.9-29.3 16.4-44.6 16.4-6.6 0-12.7-1.8-18.3-5.3-130.8-54.6-223.6-147.4-278.4-278.4-4.3-11.2-6.5-21.6-6.5-31.2 0-30.2 17.5-51.8 52.6-64.8 4.3-1.5 8.5-2.3 12.6-2.3 16.8 0 39.2 21.5 67.4 64.4 8.6 13.7 13.3 24 14.1 30.9 0 8.6-2 15.4-6.1 20.4-4.1 5-8.9 9.3-14.5 13.1-9.6 6.1-14.9 11.5-15.6 16.2-.8 4.7-1.1 8.1-1.1 10.1 0 6.8 2 13.8 6.1 20.9 19 43.2 50 73.5 92.9 91 6.1 2.8 11.7 4.2 16.8 4.2 9.6 0 17.1-4.1 22.5-12.2 9.4-14.5 17.1-21.9 23-22.3 6-.4 9.3-.6 10.1-.6 10.7 0 21.5 4.7 32.4 14.1 15.8 8.6 30.5 18.3 44.2 29z"/><path d="M748.3 256c18.9 45.7 28.4 93.7 28.4 144s-9.5 98.3-28.4 144-46.3 86.5-82.1 122.3-76.5 63.2-122.3 82.1c-45.7 18.9-93.7 28.4-144 28.4s-98.3-9.5-144-28.4-86.5-46.3-122.3-82.1C98 630.4 70.6 589.7 51.7 544c-18.9-45.7-28.4-93.7-28.4-144s9.5-98.3 28.4-144 46.3-86.4 82.1-122.3 76.5-63.1 122.2-82 93.7-28.4 144-28.4 98.3 9.5 144 28.4 86.5 46.3 122.3 82.1c35.7 35.8 63.1 76.5 82 122.2zM586.2 391.2c0-1-.2-2.4-.6-4.2-.4-1.8-.6-4.1-.6-6.9 0-30.5-7.4-58.6-22.3-84.4-14.9-25.8-35.1-47-60.8-63.6-25.6-16.6-53.8-25.8-84.6-27.6-1 0-2.6-.1-4.8-.4-2.2-.3-4.5-.4-7.1-.4-6.4 0-9.5 3.7-9.5 11 0 3.6 1.1 5.9 3.2 7.1 2.1 1.1 4.7 1.8 7.6 1.9 2.9.1 5.3.7 7 1.7 48 6.8 83.9 22.5 107.6 47 23.7 24.5 38.9 60.8 45.5 108.7l-.8 7.6c0 2.5.3 5.5.8 8.9.5 3.4 3.3 5.1 8.4 5.1 5.8 0 9-1.9 9.5-5.7 1.2-1.4 1.5-3.5 1.5-5.8zm3.5 131.1c0-11.4-7.8-22.7-23.2-33.9-13.7-10.7-28.4-20.3-44.2-28.9-10.9-9.4-21.7-14.1-32.4-14.1-.8 0-4.1.2-10.1.6-6 .4-13.6 7.8-23 22.3-5.3 8.1-12.8 12.2-22.5 12.2-5.1 0-10.7-1.4-16.8-4.2-42.9-17.5-73.9-47.9-92.9-91-4.1-7.1-6.1-14.1-6.1-20.9 0-2 .4-5.4 1.1-10.1.8-4.7 6-10.1 15.6-16.2 5.6-3.8 10.4-8.2 14.5-13.1 4.1-5 6.1-11.7 6.1-20.4-.8-6.9-5.5-17.1-14.1-30.9-28.2-42.9-50.7-64.4-67.4-64.4-4.1 0-8.3.8-12.6 2.3-35 12.9-52.6 34.5-52.6 64.8 0 9.6 2.1 20.1 6.5 31.2C270.5 438.6 363.2 531.4 494 586c5.6 3.6 11.7 5.3 18.3 5.3 15.2 0 30.1-5.5 44.6-16.4 21.9-17.4 32.8-34.9 32.8-52.6zM539 368.8c0-1.8.1-3 .4-3.8 0-27.9-10.2-52.8-30.5-74.5-20.3-21.7-45.2-35.1-74.6-40.2-3.6-1-7.8-1.5-12.6-1.5-1.3 0-3.3.3-6.1.8s-4.6 4.6-5.3 12.2c0 6.1 4.8 9.1 14.5 9.1 31.7 6.6 54.3 16.8 67.6 30.7 13.3 13.8 22.2 35 26.5 63.4v6.9c0 2.8.6 5.6 1.7 8.6 1.1 2.9 4.8 4.4 10.9 4.4 5.1-1.8 7.6-5.8 7.6-12.2v-3.9zm-44.9-4.6c.8-3.1 1.1-6.4 1.1-9.9 0-13.2-6-26-17.9-38.5-11.9-12.4-24.8-18.7-38.5-18.7-3.1 0-5.9.1-8.4.4-4.8 1-7.2 4.4-7.2 10.3 0 5.1 3.7 8.3 11 9.5 25.1 3.6 38.3 17.8 39.6 42.7 1.5 6.6 5.4 9.9 11.8 9.9 4.9-.8 7.7-2.6 8.5-5.7z" fill="#7c529e"/></g></svg>