<?xml version="1.0" encoding="utf-8"?>
<!-- Generator: Adobe Illustrator 19.0.1, SVG Export Plug-In . SVG Version: 6.00 Build 0)  -->
<svg version="1.1" id="Layer_1" xmlns="http://www.w3.org/2000/svg" xmlns:xlink="http://www.w3.org/1999/xlink" x="0px" y="0px"
	 viewBox="0 0 800 800" style="enable-background:new 0 0 800 800;" xml:space="preserve">
<style type="text/css">
	.st0{fill:#FFFFFF;}
	.st1{fill:#7C529E;}
</style>
<g>
	<g id="XMLID_1_">
		<g>
			<path class="st0" d="M495.2,354.3c0,3.6-0.4,6.9-1.1,9.9c-0.8,3-3.6,4.9-8.4,5.7c-6.4,0-10.3-3.3-11.8-9.9
				c-1.3-24.9-14.5-39.1-39.6-42.7c-7.4-1.3-11-4.4-11-9.5c0-5.8,2.4-9.3,7.2-10.3c2.5-0.3,5.3-0.4,8.4-0.4
				c13.7,0,26.5,6.2,38.5,18.7C489.3,328.3,495.2,341.1,495.2,354.3z"/>
			<path class="st0" d="M539.4,365c-0.3,0.8-0.4,2-0.4,3.8v3.8c0,6.4-2.5,10.4-7.6,12.2c-6.1,0-9.7-1.5-10.9-4.4
				c-1.1-2.9-1.7-5.8-1.7-8.6V365c-4.3-28.4-13.1-49.6-26.5-63.4c-13.3-13.8-35.9-24.1-67.6-30.7c-9.7,0-14.5-3.1-14.5-9.1
				c0.8-7.6,2.5-11.7,5.3-12.2c2.8-0.5,4.8-0.8,6.1-0.8c4.8,0,9,0.5,12.6,1.5c29.5,5.1,54.3,18.5,74.6,40.2
				C529.2,312.2,539.4,337,539.4,365z"/>
			<path class="st0" d="M585.7,387c0.4,1.8,0.6,3.2,0.6,4.2c0,2.3-0.4,4.3-1.1,6.1c-0.5,3.8-3.7,5.7-9.5,5.7c-5.1,0-7.9-1.7-8.4-5.1
				c-0.5-3.4-0.8-6.4-0.8-8.9l0.8-7.6c-6.6-48-21.8-84.2-45.5-108.7c-23.7-24.5-59.6-40.2-107.6-47c-1.8-1-4.1-1.6-7-1.7
				c-2.9-0.1-5.5-0.8-7.6-1.9c-2.2-1.1-3.2-3.5-3.2-7.1c0-7.4,3.2-11,9.5-11c2.5,0,4.9,0.1,7.1,0.4c2.1,0.3,3.7,0.4,4.8,0.4
				c30.7,1.8,58.9,11,84.6,27.6c25.6,16.6,45.9,37.8,60.8,63.6c14.8,25.8,22.3,53.9,22.3,84.4C585.1,383,585.3,385.3,585.7,387z"/>
			<path class="st0" d="M566.4,488.4c15.5,11.2,23.2,22.5,23.2,33.9c0,17.8-10.9,35.3-32.8,52.5c-14.5,10.9-29.3,16.4-44.6,16.4
				c-6.6,0-12.7-1.8-18.3-5.3c-130.8-54.6-223.6-147.4-278.4-278.4c-4.3-11.2-6.5-21.6-6.5-31.2c0-30.2,17.5-51.8,52.6-64.8
				c4.3-1.5,8.5-2.3,12.6-2.3c16.8,0,39.2,21.5,67.4,64.4c8.6,13.7,13.3,24,14.1,30.9c0,8.6-2,15.4-6.1,20.4
				c-4.1,5-8.9,9.3-14.5,13.1c-9.6,6.1-14.9,11.5-15.6,16.2c-0.8,4.7-1.1,8.1-1.1,10.1c0,6.8,2,13.8,6.1,20.9
				c19,43.2,50,73.5,92.9,91c6.1,2.8,11.7,4.2,16.8,4.2c9.6,0,17.1-4.1,22.5-12.2c9.4-14.5,17.1-21.9,23-22.3
				c6-0.4,9.3-0.6,10.1-0.6c10.7,0,21.5,4.7,32.4,14.1C538,468,552.7,477.7,566.4,488.4z"/>
			<path class="st1" d="M748.3,256c18.9,45.7,28.4,93.7,28.4,144s-9.5,98.3-28.4,144c-18.9,45.7-46.3,86.5-82.1,122.3
				c-35.8,35.8-76.5,63.2-122.3,82.1c-45.7,18.9-93.7,28.4-144,28.4s-98.3-9.5-144-28.4c-45.7-18.9-86.5-46.3-122.3-82.1
				C98,630.4,70.6,589.7,51.7,544c-18.9-45.7-28.4-93.7-28.4-144s9.5-98.3,28.4-144c18.9-45.7,46.3-86.4,82.1-122.3
				S210.3,70.6,256,51.7c45.7-18.9,93.7-28.4,144-28.4s98.3,9.5,144,28.4c45.7,18.9,86.5,46.3,122.3,82.1
				C702,169.6,729.4,210.3,748.3,256z M586.2,391.2c0-1-0.2-2.4-0.6-4.2c-0.4-1.8-0.6-4.1-0.6-6.9c0-30.5-7.4-58.6-22.3-84.4
				c-14.9-25.8-35.1-47-60.8-63.6c-25.6-16.6-53.8-25.8-84.6-27.6c-1,0-2.6-0.1-4.8-0.4c-2.2-0.3-4.5-0.4-7.1-0.4
				c-6.4,0-9.5,3.7-9.5,11c0,3.6,1.1,5.9,3.2,7.1c2.1,1.1,4.7,1.8,7.6,1.9c2.9,0.1,5.3,0.7,7,1.7c48,6.8,83.9,22.5,107.6,47
				c23.7,24.5,38.9,60.8,45.5,108.7l-0.8,7.6c0,2.5,0.3,5.5,0.8,8.9c0.5,3.4,3.3,5.1,8.4,5.1c5.8,0,9-1.9,9.5-5.7
				C585.9,395.6,586.2,393.5,586.2,391.2z M589.7,522.3c0-11.4-7.8-22.7-23.2-33.9c-13.7-10.7-28.4-20.3-44.2-28.9
				c-10.9-9.4-21.7-14.1-32.4-14.1c-0.8,0-4.1,0.2-10.1,0.6c-6,0.4-13.6,7.8-23,22.3c-5.3,8.1-12.8,12.2-22.5,12.2
				c-5.1,0-10.7-1.4-16.8-4.2c-42.9-17.5-73.9-47.9-92.9-91c-4.1-7.1-6.1-14.1-6.1-20.9c0-2,0.4-5.4,1.1-10.1
				c0.8-4.7,6-10.1,15.6-16.2c5.6-3.8,10.4-8.2,14.5-13.1c4.1-5,6.1-11.7,6.1-20.4c-0.8-6.9-5.5-17.1-14.1-30.9
				c-28.2-42.9-50.7-64.4-67.4-64.4c-4.1,0-8.3,0.8-12.6,2.3c-35,12.9-52.6,34.5-52.6,64.8c0,9.6,2.1,20.1,6.5,31.2
				c54.9,131,147.6,223.8,278.4,278.4c5.6,3.6,11.7,5.3,18.3,5.3c15.2,0,30.1-5.5,44.6-16.4C578.8,557.5,589.7,540,589.7,522.3z
				 M539,368.8c0-1.8,0.1-3,0.4-3.8c0-27.9-10.2-52.8-30.5-74.5c-20.3-21.7-45.2-35.1-74.6-40.2c-3.6-1-7.8-1.5-12.6-1.5
				c-1.3,0-3.3,0.3-6.1,0.8c-2.8,0.5-4.6,4.6-5.3,12.2c0,6.1,4.8,9.1,14.5,9.1c31.7,6.6,54.3,16.8,67.6,30.7
				c13.3,13.8,22.2,35,26.5,63.4v6.9c0,2.8,0.6,5.6,1.7,8.6c1.1,2.9,4.8,4.4,10.9,4.4c5.1-1.8,7.6-5.8,7.6-12.2V368.8z M494.1,364.2
				c0.8-3.1,1.1-6.4,1.1-9.9c0-13.2-6-26-17.9-38.5c-11.9-12.4-24.8-18.7-38.5-18.7c-3.1,0-5.9,0.1-8.4,0.4c-4.8,1-7.2,4.4-7.2,10.3
				c0,5.1,3.7,8.3,11,9.5c25.1,3.6,38.3,17.8,39.6,42.7c1.5,6.6,5.4,9.9,11.8,9.9C490.5,369.1,493.3,367.3,494.1,364.2z"/>
		</g>
		<g>
		</g>
	</g>
</g>
</svg>
