<svg width="20" height="20" viewBox="0 0 20 20" xmlns="http://www.w3.org/2000/svg"><g fill-rule="evenodd"><path d="M15.49 16.043h2.212V9.957H15.49v6.086zm3.334 2.028H1.106l-.016-.922h17.72l.015.922zM2.213 16.043h2.213V9.957H2.213v6.086zM5.532 1.106h8.851v7.745h-1.106V2.213H6.638V8.85H5.532V1.106zm6.638 8.851h2.213v6.086H12.17V9.957zm-3.319 6.086h2.213V9.957H8.85v6.086zm3.32-7.192H7.744V3.32h4.425v5.532zM5.53 9.957h2.214v6.086H5.532V9.957zm14.384 0V8.851h-4.426V.553A.553.553 0 0014.936 0H4.98a.553.553 0 00-.553.553v8.298H0v1.106h1.106v6.086H1.09A1.1 1.1 0 000 17.149v.922a1.1 1.1 0 001.09 1.106h17.734a1.1 1.1 0 001.09-1.106v-.922a1.1 1.1 0 00-1.09-1.106h-.015V9.957h1.106z"/><path d="M8.298 7.745h1.106V5.532H8.298z"/></g></svg>