<svg width="16" height="23" viewBox="0 0 16 23" xmlns="http://www.w3.org/2000/svg" xmlns:xlink="http://www.w3.org/1999/xlink"><defs><path id="a" d="M0 .03h15.898v22.01H0z"/></defs><g fill="none" fill-rule="evenodd"><path d="M12.705 18.324v-5.456H4.163c-.036.713-.1 1.446-.194 2.18a32.07 32.07 0 01-.592 3.276h9.328zM1.554 22.65a.67.67 0 01-.623-.417.669.669 0 010-.516c.013-.029 1.21-2.93 1.705-6.872.449-3.572.385-8.735-2.466-13.043a.675.675 0 011.124-.744c1.368 2.065 2.263 4.47 2.66 7.15.158 1.056.238 2.17.241 3.31h10.971a.675.675 0 010 1.349h-1.113v5.456h.251a.675.675 0 010 1.348h-.251v2.305a.675.675 0 01-1.348 0v-2.305H3.03c-.437 1.558-.836 2.523-.853 2.564a.673.673 0 01-.623.415z" fill="#000"/><g transform="translate(0 .668)"><mask id="b" fill="#fff"><use xlink:href="#a"/></mask><path d="M4.218 12.257h8.429v5.34H3.45c.248-1.07.442-2.149.577-3.21.09-.717.155-1.433.19-2.13M.733.03a.728.728 0 00-.717.586.727.727 0 00.107.55c2.841 4.293 2.904 9.44 2.456 13.004-.491 3.913-1.688 6.827-1.7 6.857a.727.727 0 000 .56.727.727 0 00.676.453.73.73 0 00.676-.451c.017-.04.412-.996.844-2.529h9.573v2.248a.733.733 0 001.464 0V19.06h.193a.733.733 0 000-1.464h-.193v-5.34h1.055a.733.733 0 000-1.464H4.253a22.97 22.97 0 00-.241-3.261c-.4-2.688-1.297-5.101-2.67-7.173A.731.731 0 00.733.03m2.572 17.682h9.458V12.14H4.108a28.56 28.56 0 01-.196 2.231 32.027 32.027 0 01-.608 3.341M.732.146c.2 0 .396.097.514.276C2.61 2.481 3.501 4.878 3.897 7.55c.16 1.077.24 2.2.24 3.36h11.03a.616.616 0 110 1.232h-1.172v5.572h.31a.616.616 0 110 1.233h-.31v2.363a.616.616 0 11-1.233 0v-2.363H2.986c-.435 1.561-.834 2.53-.863 2.6a.616.616 0 11-1.138-.474c.012-.029 1.214-2.96 1.708-6.887.45-3.582.386-8.76-2.475-13.082A.616.616 0 01.732.146" fill="#000" mask="url(#b)"/></g></g></svg>