<svg width="15" height="24" viewBox="0 0 15 24" xmlns="http://www.w3.org/2000/svg" xmlns:xlink="http://www.w3.org/1999/xlink"><defs><path id="a" d="M0 .016h14.986v23.507H0z"/></defs><g fill="none" fill-rule="evenodd"><g transform="translate(0 .154)"><mask id="b" fill="#fff"><use xlink:href="#a"/></mask><path d="M13.85 19.545a.813.813 0 01-.813.812H1.948a.813.813 0 01-.812-.812V8.726H13.85v10.82zM2.352 22.387h10.28v-.894H2.352v.894zM13.037.017H1.948A1.95 1.95 0 000 1.964v4.65h1.136v-4.65c0-.448.365-.813.812-.813h11.09c.447 0 .811.365.811.813V7.59H0v11.955a1.95 1.95 0 001.217 1.805v1.605c0 .313.255.568.568.568H13.2a.568.568 0 00.568-.568V21.35a1.95 1.95 0 001.218-1.805V1.965A1.95 1.95 0 0013.037.016z" fill="#1D1D1B" mask="url(#b)"/></g><path d="M3.535 6.043V2.96a.568.568 0 00-1.137 0v3.083a.568.568 0 001.137 0m-.568 3.768a.568.568 0 00-.569.568v5.615a.568.568 0 001.137 0v-5.615a.568.568 0 00-.568-.568" fill="#1D1D1B"/></g></svg>