<?xml version="1.0" encoding="UTF-8"?>
<svg width="20px" height="19px" viewBox="0 0 20 19" version="1.1" xmlns="http://www.w3.org/2000/svg" xmlns:xlink="http://www.w3.org/1999/xlink">
    <!-- Generator: Sketch 51.3 (57544) - http://www.bohemiancoding.com/sketch -->
    <title>Group 9</title>
    <desc>Created with Sketch.</desc>
    <defs></defs>
    <g id="Welcome" stroke="none" stroke-width="1" fill="none" fill-rule="evenodd">
        <g id="CLanding" transform="translate(-810.000000, -1707.000000)" fill="#000000">
            <g id="Rooms" transform="translate(0.000000, 1411.000000)">
                <g id="Group-15" transform="translate(810.000000, 204.000000)">
                    <g id="Group-12" transform="translate(0.000000, 76.000000)">
                        <g id="Group-14">
                            <g id="Group-9" transform="translate(0.000000, 16.535678)">
                                <path d="M1.2892562,9.02484298 L1.2892562,7.73558678 L18.6952066,7.73558678 L18.6952066,9.02484298 L1.2892562,9.02484298 Z M2.5785124,1.28930579 L2.5785124,3.22319008 C2.5785124,3.57922314 2.86710744,3.86781818 3.2231405,3.86781818 L16.7603306,3.86781818 C17.1163636,3.86781818 17.4049587,3.57922314 17.4049587,3.22319008 L17.4049587,1.28930579 L18.6942149,1.28930579 L18.694876,6.44633058 L1.2892562,6.44633058 L1.2892562,1.28930579 L2.5785124,1.28930579 Z M3.8677686,2.57856198 L16.1157025,2.57856198 L16.1157025,1.28930579 L3.8677686,1.28930579 L3.8677686,2.57856198 Z M18.6942149,4.95867769e-05 L1.2892562,4.95867769e-05 C0.578181818,4.95867769e-05 0,0.578231405 0,1.28930579 L0,9.02484298 C0,9.73591736 0.578181818,10.3140992 1.2892562,10.3140992 L18.6942149,10.3140992 C19.4052893,10.3140992 19.9834711,9.73591736 19.9834711,9.02484298 L19.9834711,1.28930579 C19.9834711,0.578231405 19.4052893,4.95867769e-05 18.6942149,4.95867769e-05 Z" id="Fill-1"></path>
                                <path d="M4.97195041,12.6999835 L4.51244628,12.2479174 L4.05657851,11.7922149 C3.35509091,12.4935372 2.77624793,14.0018017 4.05657851,15.2822975 C4.42203306,15.6480826 4.59922314,16.0122149 4.59806612,16.3961818 C4.59608264,17.0530413 4.06798347,17.5824628 4.06566942,17.5851074 L4.95905785,18.5141983 C5.05277686,18.424281 5.87558678,17.5994876 5.88732231,16.4173388 C5.89442975,15.6763471 5.58533884,14.9879174 4.96814876,14.3707273 C4.20798347,13.6102314 4.77872727,12.8998182 4.97195041,12.6999835" id="Fill-3"></path>
                                <path d="M10.1289752,12.6999835 L9.66947107,12.2479174 L9.21360331,11.7922149 C8.5121157,12.4935372 7.93327273,14.0018017 9.21360331,15.2822975 C9.57905785,15.6480826 9.75624793,16.0122149 9.75509091,16.3961818 C9.75310744,17.0530413 9.22500826,17.5824628 9.2228595,17.5851074 L10.1160826,18.5141983 C10.2098017,18.424281 11.0326116,17.5994876 11.0443471,16.4173388 C11.0514545,15.6763471 10.7423636,14.9879174 10.1251736,14.3707273 C9.36500826,13.6102314 9.93575207,12.8998182 10.1289752,12.6999835" id="Fill-5"></path>
                                <path d="M15.286,12.6999835 L14.8264959,12.2479174 L14.3706281,11.7922149 C13.6691405,12.4935372 13.0902975,14.0018017 14.3706281,15.2822975 C14.7360826,15.6480826 14.9132727,16.0122149 14.9121157,16.3961818 C14.9101322,17.0530413 14.3820331,17.5824628 14.3798843,17.5851074 L15.2731074,18.5141983 C15.3668264,18.424281 16.1896364,17.5994876 16.2013719,16.4173388 C16.2084793,15.6763471 15.8993884,14.9879174 15.2821983,14.3707273 C14.5220331,13.6102314 15.0927769,12.8998182 15.286,12.6999835" id="Fill-7"></path>
                            </g>
                        </g>
                    </g>
                </g>
            </g>
        </g>
    </g>
</svg>