<svg width="20" height="19" viewBox="0 0 20 19" xmlns="http://www.w3.org/2000/svg"><path d="M1.29 9.56V8.272h17.405v1.29H1.29zm1.289-7.735v1.934c0 .356.288.644.644.644H16.76a.645.645 0 00.645-.644V1.825h1.29v5.157H1.289V1.825h1.29zm1.289 1.29h12.248v-1.29H3.868v1.29zM18.694.534H1.29A1.29 1.29 0 000 1.826v7.736c0 .71.578 1.289 1.29 1.289h17.404a1.29 1.29 0 001.29-1.29V1.826a1.29 1.29 0 00-1.29-1.29zM4.972 13.236l-.46-.452-.455-.456c-.702.701-1.28 2.21 0 3.49.365.366.542.73.541 1.114-.002.657-.53 1.186-.532 1.189l.893.929c.094-.09.917-.915.928-2.097.007-.741-.302-1.43-.919-2.047-.76-.76-.19-1.47.004-1.67m5.157 0l-.46-.452-.455-.456c-.702.701-1.28 2.21 0 3.49.365.366.542.73.541 1.114-.002.657-.53 1.186-.532 1.189l.893.929c.094-.09.917-.915.928-2.097.007-.741-.302-1.43-.919-2.047-.76-.76-.19-1.47.004-1.67m5.157 0l-.46-.452-.455-.456c-.702.701-1.28 2.21 0 3.49.365.366.542.73.541 1.114-.002.657-.53 1.186-.532 1.189l.893.929c.094-.09.917-.915.928-2.097.007-.741-.302-1.43-.919-2.047-.76-.76-.19-1.47.004-1.67" fill-rule="evenodd"/></svg>