<svg width="22" height="16" viewBox="0 0 22 16" xmlns="http://www.w3.org/2000/svg" xmlns:xlink="http://www.w3.org/1999/xlink"><defs><path id="a" d="M0 15.751h21.92V0H0z"/></defs><g fill="none" fill-rule="evenodd"><path d="M4.4 14.714H3.063a.519.519 0 100 1.037H4.4a.519.519 0 100-1.037m14.457 0h-1.335a.519.519 0 100 1.037h1.335a.519.519 0 100-1.037m-1.016-3.76a.77.77 0 11.001-1.539.77.77 0 010 1.54m0-2.427a1.66 1.66 0 00-1.659 1.658 1.66 1.66 0 001.658 1.657 1.66 1.66 0 001.658-1.657 1.66 1.66 0 00-1.658-1.658" fill="#1D1D1B"/><mask id="b" fill="#fff"><use xlink:href="#a"/></mask><path d="M16.685 4.234h2.312V3.197h-2.312v1.037zm-.889.89h4.09V2.307h-4.09v2.815zm0 1.703h1.619v-.911h-1.619zm2.471.007h1.619v-.911h-1.619zm-5.436 2.244V4.93a.519.519 0 00-1.037 0v4.148a.519.519 0 101.037 0" fill="#1D1D1B" mask="url(#b)"/><path d="M20.883 11.73c0 .64-.52 1.16-1.161 1.16H14.82V1.038h4.902c.64 0 1.161.521 1.161 1.162v9.53zm-7.1-9.507H1.037V2.2c0-.64.521-1.162 1.162-1.162h11.584v1.186zm0 10.668H2.199a1.16 1.16 0 01-1.156-1.106h12.74v1.106zM19.722 0H2.199A2.2 2.2 0 000 2.199v1.067l13.783-.005v7.486H1.037V4.155H0v7.574c0 1.213.986 2.199 2.2 2.199h17.522a2.201 2.201 0 002.199-2.199V2.2A2.201 2.201 0 0019.72 0z" fill="#1D1D1B" mask="url(#b)"/></g></svg>