<?xml version="1.0" encoding="UTF-8"?>
<svg width="22px" height="16px" viewBox="0 0 22 16" version="1.1" xmlns="http://www.w3.org/2000/svg" xmlns:xlink="http://www.w3.org/1999/xlink">
    <!-- Generator: Sketch 51.3 (57544) - http://www.bohemiancoding.com/sketch -->
    <title>Group 13</title>
    <desc>Created with Sketch.</desc>
    <defs>
        <polygon id="path-1" points="0 15.7512254 21.9206761 15.7512254 21.9206761 0 0 0"></polygon>
    </defs>
    <g id="Welcome" stroke="none" stroke-width="1" fill="none" fill-rule="evenodd">
        <g id="CLanding" transform="translate(-811.000000, -2668.000000)">
            <g id="Facilities" transform="translate(0.000000, 2129.000000)">
                <g id="Group-5" transform="translate(810.000000, 325.000000)">
                    <g id="Group-20">
                        <g id="Group-13" transform="translate(1.000000, 214.000000)">
                            <path d="M4.39930282,14.7139254 L3.06411972,14.7139254 C2.77765493,14.7139254 2.54526056,14.9460099 2.54526056,15.2326296 C2.54526056,15.5190944 2.77765493,15.7511789 3.06411972,15.7511789 L4.39930282,15.7511789 C4.68576761,15.7511789 4.91800704,15.5190944 4.91800704,15.2326296 C4.91800704,14.9460099 4.68576761,14.7139254 4.39930282,14.7139254" id="Fill-1" fill="#1D1D1B"></path>
                            <path d="M18.8567423,14.7139254 L17.5217141,14.7139254 C17.2350944,14.7139254 17.0030099,14.9460099 17.0030099,15.2326296 C17.0030099,15.5190944 17.2350944,15.7511789 17.5217141,15.7511789 L18.8567423,15.7511789 C19.143207,15.7511789 19.3754465,15.5190944 19.3754465,15.2326296 C19.3754465,14.9460099 19.143207,14.7139254 18.8567423,14.7139254" id="Fill-3" fill="#1D1D1B"></path>
                            <path d="M17.8411634,10.9542803 C17.4171211,10.9542803 17.072093,10.609562 17.072093,10.1858296 C17.072093,9.76178732 17.4171211,9.41691408 17.8411634,9.41691408 C18.2652056,9.41691408 18.6102338,9.76178732 18.6102338,10.1858296 C18.6102338,10.609562 18.2652056,10.9542803 17.8411634,10.9542803 M17.8411634,8.52777324 C16.9269239,8.52777324 16.183107,9.27159014 16.183107,10.1858296 C16.183107,11.0999141 16.9269239,11.8434211 17.8411634,11.8434211 C18.7554028,11.8434211 19.4992197,11.0999141 19.4992197,10.1858296 C19.4992197,9.27159014 18.7554028,8.52777324 17.8411634,8.52777324" id="Fill-5" fill="#1D1D1B"></path>
                            <mask id="mask-2" fill="white">
                                <use xlink:href="#path-1"></use>
                            </mask>
                            <g id="Clip-8"></g>
                            <path d="M16.6854507,4.23407042 L18.9968451,4.23407042 L18.9968451,3.19728169 L16.6854507,3.19728169 L16.6854507,4.23407042 Z M15.7963099,5.12321127 L19.885831,5.12321127 L19.885831,2.30829577 L15.7963099,2.30829577 L15.7963099,5.12321127 Z" id="Fill-7" fill="#1D1D1B" mask="url(#mask-2)"></path>
                            <polygon id="Fill-9" fill="#1D1D1B" mask="url(#mask-2)" points="15.7964648 6.82743662 17.4148592 6.82743662 17.4148592 5.91567606 15.7964648 5.91567606"></polygon>
                            <polygon id="Fill-10" fill="#1D1D1B" mask="url(#mask-2)" points="18.2674366 6.83425352 19.885831 6.83425352 19.885831 5.92264789 18.2674366 5.92264789"></polygon>
                            <path d="M12.8314845,9.07791268 L12.8314845,4.93013803 C12.8314845,4.64382817 12.5994,4.4114338 12.3127803,4.4114338 C12.0263155,4.4114338 11.794231,4.64382817 11.794231,4.93013803 L11.794231,9.07791268 C11.794231,9.36437746 12.0263155,9.5966169 12.3127803,9.5966169 C12.5994,9.5966169 12.8314845,9.36437746 12.8314845,9.07791268" id="Fill-11" fill="#1D1D1B" mask="url(#mask-2)"></path>
                            <path d="M20.8833141,11.7290831 C20.8833141,12.369562 20.3622859,12.8905901 19.721807,12.8905901 L14.8204549,12.8905901 L14.8204549,1.03739296 L19.721807,1.03739296 C20.3622859,1.03739296 20.8833141,1.5582662 20.8833141,2.19874507 L20.8833141,11.7290831 Z M13.7830465,2.22337887 L1.0373,2.22337887 L1.0373,2.19874507 C1.0373,1.5582662 1.55832817,1.03739296 2.1991169,1.03739296 L13.7830465,1.03739296 L13.7830465,2.22337887 Z M13.7830465,12.8905901 L2.1991169,12.8905901 C1.57738451,12.8905901 1.07262394,12.3988437 1.04318732,11.7847028 L13.7830465,11.7847028 L13.7830465,12.8905901 Z M19.721807,-1.54929577e-05 L2.1991169,-1.54929577e-05 C0.986328169,-1.54929577e-05 4.64788732e-05,0.986421127 4.64788732e-05,2.19874507 L4.64788732e-05,3.2659 L13.7830465,3.26078732 L13.7830465,10.7472944 L1.0373,10.7472944 L1.0373,4.15504085 L4.64788732e-05,4.15504085 L4.64788732e-05,11.7290831 C4.64788732e-05,12.941562 0.986328169,13.9278437 2.1991169,13.9278437 L19.721807,13.9278437 C20.9342859,13.9278437 21.9205676,12.941562 21.9205676,11.7290831 L21.9205676,2.19874507 C21.9205676,0.986421127 20.9342859,-1.54929577e-05 19.721807,-1.54929577e-05 Z" id="Fill-12" fill="#1D1D1B" mask="url(#mask-2)"></path>
                        </g>
                    </g>
                </g>
            </g>
        </g>
    </g>
</svg>