<svg width="16" height="26" viewBox="0 0 16 26" xmlns="http://www.w3.org/2000/svg" xmlns:xlink="http://www.w3.org/1999/xlink"><defs><path id="a" d="M0 .061h15.98v25.8H0z"/></defs><g fill="none" fill-rule="evenodd"><path d="M7.147 8.418H8.39a.592.592 0 100-1.184H7.147a.592.592 0 100 1.184m0 2.112H8.39a.592.592 0 100-1.184H7.147a.592.592 0 100 1.183m0 2.111H8.39a.592.592 0 000-1.183H7.147a.592.592 0 100 1.184m0 2.111H8.39a.592.592 0 000-1.184H7.147a.592.592 0 000 1.184m.636 6.919a.692.692 0 010-1.381.691.691 0 010 1.381m0-2.565a1.877 1.877 0 00-1.874 1.875c0 1.033.84 1.874 1.874 1.874 1.034 0 1.875-.84 1.875-1.874a1.877 1.877 0 00-1.875-1.875" fill="#1D1D1B"/><g transform="translate(0 .125)"><mask id="b" fill="#fff"><use xlink:href="#a"/></mask><path d="M12.398 18.614l.458 5.061H2.71l.458-5.065c.025-.297.344-.558.682-.558h7.864c.339 0 .658.26.683.562zm-8.69-14.66c1.074-.999 2.572-1.61 4.063-1.61 1.49 0 2.99.611 4.062 1.61H3.709zm9.64 3.246h1.446v3.809c0 .014 0 .028.002.043 0 .009.05.946-.586 1.629-.372.4-.918.646-1.624.738l.762-6.219zm1.728 6.287c.93-1 .912-2.285.902-2.494V6.608a.592.592 0 00-.592-.591h-1.892l.173-1.412a.585.585 0 00-.037-.28c-.004-.015-.006-.03-.012-.045a.99.99 0 00-.113-.21C12.34 2.433 10.409 1.364 8.36 1.19V.653a.592.592 0 00-1.184 0v.536c-1.997.171-3.88 1.194-5.052 2.765H.592a.592.592 0 00-.418 1.012L2.17 6.95l1.122 8.903h1.193L3.318 6.597a.587.587 0 00-.18-.35c-.003-.004-.005-.009-.01-.012L2.027 5.138H12.41l-1.439 11.73h-7.12c-.95 0-1.786.737-1.861 1.64l-.468 5.167h-.036a.592.592 0 000 1.184H2.51v.41a.592.592 0 001.183 0v-.41h8.18v.41a.592.592 0 001.184 0v-.41h1.023a.592.592 0 000-1.184h-.036l-.467-5.164c-.063-.762-.666-1.398-1.421-1.583l.282-2.303c1.13-.087 2.016-.468 2.638-1.138z" fill="#1D1D1B" mask="url(#b)"/></g></g></svg>