<svg width="20" height="20" viewBox="0 0 20 20" xmlns="http://www.w3.org/2000/svg" xmlns:xlink="http://www.w3.org/1999/xlink"><defs><path id="a" d="M0 .12h20v19.146H0z"/></defs><g fill="none" fill-rule="evenodd"><path d="M10 4.833a5.465 5.465 0 00-5.46 5.459c0 3.01 2.45 5.46 5.46 5.46a5.465 5.465 0 005.459-5.46A5.465 5.465 0 0010 4.833m0 11.878c-3.54 0-6.42-2.88-6.42-6.419 0-3.54 2.88-6.42 6.42-6.42s6.42 2.88 6.42 6.42-2.88 6.42-6.42 6.42" fill="#1D1D1B"/><path d="M10 5.07a5.228 5.228 0 00-5.222 5.222A5.228 5.228 0 0010 15.514a5.228 5.228 0 005.222-5.222A5.228 5.228 0 0010 5.07m0 10.918a5.702 5.702 0 01-5.696-5.696A5.702 5.702 0 0110 4.596a5.702 5.702 0 015.696 5.696A5.702 5.702 0 0110 15.988M10 4.11a6.19 6.19 0 00-6.183 6.182A6.19 6.19 0 0010 16.475a6.19 6.19 0 006.182-6.183A6.19 6.19 0 0010 4.11m0 12.838a6.664 6.664 0 01-6.656-6.656A6.664 6.664 0 0110 3.636a6.663 6.663 0 016.656 6.656A6.664 6.664 0 0110 16.948" fill="#1D1D1B"/><path d="M7.558 9.687a.605.605 0 10.001 1.211.605.605 0 000-1.21m0 2.17a1.567 1.567 0 01-1.566-1.566c0-.863.702-1.565 1.565-1.565s1.565.702 1.565 1.565-.702 1.565-1.565 1.565" fill="#1D1D1B"/><path d="M7.558 9.924a.368.368 0 10.001.737.368.368 0 000-.737m0 1.21a.843.843 0 010-1.683.842.842 0 010 1.683m0-2.17a1.33 1.33 0 00-1.329 1.328 1.33 1.33 0 001.328 1.328 1.33 1.33 0 001.328-1.328 1.33 1.33 0 00-1.328-1.328m0 3.13a1.804 1.804 0 01-1.801-1.802c0-.993.808-1.802 1.801-1.802.994 0 1.802.809 1.802 1.802 0 .994-.808 1.802-1.802 1.802m4.883-2.407a.606.606 0 100 1.211.606.606 0 000-1.21m0 2.17a1.567 1.567 0 01-1.565-1.566c0-.863.702-1.565 1.565-1.565s1.565.702 1.565 1.565-.702 1.565-1.565 1.565" fill="#1D1D1B"/><path d="M12.441 9.924a.368.368 0 100 .737.368.368 0 000-.737m0 1.21a.843.843 0 010-1.683.843.843 0 010 1.683m0-2.17a1.33 1.33 0 00-1.328 1.328 1.33 1.33 0 001.328 1.328 1.33 1.33 0 001.329-1.328 1.33 1.33 0 00-1.329-1.328m0 3.13a1.804 1.804 0 01-1.802-1.802c0-.993.808-1.802 1.802-1.802s1.802.809 1.802 1.802c0 .994-.808 1.802-1.802 1.802" fill="#1D1D1B"/><path d="M2.317 1.916c-.617 0-1.12.503-1.12 1.12v14.512c0 .617.503 1.12 1.12 1.12h15.365c.618 0 1.12-.503 1.12-1.12V3.037a1.12 1.12 0 00-1.12-1.12H2.317zm15.365 17.712H2.317a2.083 2.083 0 01-2.08-2.08V3.037c0-1.148.933-2.081 2.08-2.081h15.365c1.147 0 2.08.933 2.08 2.08v14.512c0 1.147-.933 2.08-2.08 2.08z" fill="#1D1D1B"/><g transform="translate(0 .599)"><mask id="b" fill="#fff"><use xlink:href="#a"/></mask><path d="M2.318 1.554a.884.884 0 00-.884.884v14.51c0 .488.396.884.884.884h15.364a.885.885 0 00.884-.883V2.438a.885.885 0 00-.884-.884H2.318zm15.364 16.752H2.318A1.359 1.359 0 01.96 16.949V2.438c0-.749.61-1.358 1.358-1.358h15.364c.748 0 1.357.61 1.357 1.358v14.51a1.36 1.36 0 01-1.357 1.358zM2.318.594A1.846 1.846 0 00.474 2.438v14.51c0 1.017.827 1.844 1.844 1.844h15.364a1.846 1.846 0 001.844-1.843V2.438A1.846 1.846 0 0017.682.594H2.318zm15.364 18.672H2.318A2.32 2.32 0 010 16.949V2.438A2.32 2.32 0 012.318.12h15.364A2.32 2.32 0 0120 2.438v14.51a2.32 2.32 0 01-2.318 2.318z" fill="#1D1D1B" mask="url(#b)"/></g></g></svg>