<?xml version="1.0" encoding="UTF-8"?>
<svg width="20px" height="20px" viewBox="0 0 20 20" version="1.1" xmlns="http://www.w3.org/2000/svg" xmlns:xlink="http://www.w3.org/1999/xlink">
    <!-- Generator: Sketch 51.3 (57544) - http://www.bohemiancoding.com/sketch -->
    <title>Group 18</title>
    <desc>Created with Sketch.</desc>
    <defs>
        <polygon id="path-1" points="7.33944954e-05 0.120183486 19.9995229 0.120183486 19.9995229 19.266 7.33944954e-05 19.266"></polygon>
    </defs>
    <g id="Welcome" stroke="none" stroke-width="1" fill="none" fill-rule="evenodd">
        <g id="CLanding" transform="translate(-1035.000000, -1742.000000)">
            <g id="Rooms" transform="translate(0.000000, 1411.000000)">
                <g id="Group-15" transform="translate(810.000000, 204.000000)">
                    <g id="Group-12" transform="translate(0.000000, 76.000000)">
                        <g id="Group-14">
                            <g id="Group-18" transform="translate(225.000000, 51.535678)">
                                <path d="M10.0001284,4.2973945 C6.98985321,4.2973945 4.5406789,6.74620183 4.5406789,9.75629358 C4.5406789,12.7665688 6.98985321,15.2155596 10.0001284,15.2155596 C13.0100367,15.2155596 15.4590275,12.7665688 15.4590275,9.75629358 C15.4590275,6.74620183 13.0100367,4.2973945 10.0001284,4.2973945 M10.0001284,16.1757431 C6.46031193,16.1757431 3.58031193,13.2959266 3.58031193,9.75629358 C3.58031193,6.21666055 6.46031193,3.33702752 10.0001284,3.33702752 C13.539578,3.33702752 16.419211,6.21666055 16.419211,9.75629358 C16.419211,13.2959266 13.539578,16.1757431 10.0001284,16.1757431" id="Fill-1" fill="#1D1D1B"></path>
                                <path d="M10.0000917,4.53416514 C7.12027523,4.53416514 4.77752294,6.87691743 4.77752294,9.75636697 C4.77752294,12.636 7.12027523,14.9787523 10.0000917,14.9787523 C12.8795413,14.9787523 15.2221101,12.636 15.2221101,9.75636697 C15.2221101,6.87691743 12.8795413,4.53416514 10.0000917,4.53416514 M10.0000917,15.4523303 C6.85917431,15.4523303 4.30394495,12.8971009 4.30394495,9.75636697 C4.30394495,6.61563303 6.85917431,4.06058716 10.0000917,4.06058716 C13.1406422,4.06058716 15.6958716,6.61563303 15.6958716,9.75636697 C15.6958716,12.8971009 13.1406422,15.4523303 10.0000917,15.4523303 M10.0000917,3.57398165 C6.59073394,3.57398165 3.81715596,6.34737615 3.81715596,9.75636697 C3.81715596,13.1655413 6.59073394,15.9389358 10.0000917,15.9389358 C13.4090826,15.9389358 16.1824771,13.1655413 16.1824771,9.75636697 C16.1824771,6.34737615 13.4090826,3.57398165 10.0000917,3.57398165 M10.0000917,16.4125138 C6.32963303,16.4125138 3.34357798,13.4266422 3.34357798,9.75636697 C3.34357798,6.08609174 6.32963303,3.10040367 10.0000917,3.10040367 C13.6701835,3.10040367 16.656055,6.08609174 16.656055,9.75636697 C16.656055,13.4266422 13.6701835,16.4125138 10.0000917,16.4125138" id="Fill-3" fill="#1D1D1B"></path>
                                <path d="M7.55844037,9.15159633 C7.22486239,9.15159633 6.95348624,9.42278899 6.95348624,9.75636697 C6.95348624,10.0897615 7.22486239,10.3613211 7.55844037,10.3613211 C7.89183486,10.3613211 8.16302752,10.0897615 8.16302752,9.75636697 C8.16302752,9.42278899 7.89183486,9.15159633 7.55844037,9.15159633 M7.55844037,11.3215046 C6.6953211,11.3215046 5.99330275,10.6193028 5.99330275,9.75636697 C5.99330275,8.89343119 6.6953211,8.19122936 7.55844037,8.19122936 C8.42137615,8.19122936 9.1233945,8.89343119 9.1233945,9.75636697 C9.1233945,10.6193028 8.42137615,11.3215046 7.55844037,11.3215046" id="Fill-5" fill="#1D1D1B"></path>
                                <path d="M7.55842202,9.38840367 C7.35548624,9.38840367 7.19034862,9.5533578 7.19034862,9.75629358 C7.19034862,9.95941284 7.35548624,10.1245505 7.55842202,10.1245505 C7.76117431,10.1245505 7.92612844,9.95941284 7.92612844,9.75629358 C7.92612844,9.5533578 7.76117431,9.38840367 7.55842202,9.38840367 M7.55842202,10.5981284 C7.09438532,10.5981284 6.71677064,10.2205138 6.71677064,9.75629358 C6.71677064,9.29244037 7.09438532,8.91482569 7.55842202,8.91482569 C8.02227523,8.91482569 8.39970642,9.29244037 8.39970642,9.75629358 C8.39970642,10.2205138 8.02227523,10.5981284 7.55842202,10.5981284 M7.55842202,8.42822018 C6.82594495,8.42822018 6.23016514,9.024 6.23016514,9.75629358 C6.23016514,10.4889541 6.82594495,11.0847339 7.55842202,11.0847339 C8.2907156,11.0847339 8.88649541,10.4889541 8.88649541,9.75629358 C8.88649541,9.024 8.2907156,8.42822018 7.55842202,8.42822018 M7.55842202,11.5583119 C6.56484404,11.5583119 5.75658716,10.7498716 5.75658716,9.75629358 C5.75658716,8.76289908 6.56484404,7.9546422 7.55842202,7.9546422 C8.55181651,7.9546422 9.36007339,8.76289908 9.36007339,9.75629358 C9.36007339,10.7498716 8.55181651,11.5583119 7.55842202,11.5583119" id="Fill-7" fill="#1D1D1B"></path>
                                <path d="M12.4411743,9.15159633 C12.1074128,9.15159633 11.8360367,9.42278899 11.8360367,9.75636697 C11.8360367,10.0897615 12.1074128,10.3613211 12.4411743,10.3613211 C12.7747523,10.3613211 13.0461284,10.0897615 13.0461284,9.75636697 C13.0461284,9.42278899 12.7747523,9.15159633 12.4411743,9.15159633 M12.4411743,11.3215046 C11.5778716,11.3215046 10.8756697,10.6193028 10.8756697,9.75636697 C10.8756697,8.89343119 11.5778716,8.19122936 12.4411743,8.19122936 C13.3042936,8.19122936 14.0063119,8.89343119 14.0063119,9.75636697 C14.0063119,10.6193028 13.3042936,11.3215046 12.4411743,11.3215046" id="Fill-9" fill="#1D1D1B"></path>
                                <path d="M12.4411376,9.38840367 C12.2380183,9.38840367 12.0728807,9.5533578 12.0728807,9.75629358 C12.0728807,9.95941284 12.2380183,10.1245505 12.4411376,10.1245505 C12.6440734,10.1245505 12.809211,9.95941284 12.809211,9.75629358 C12.809211,9.5533578 12.6440734,9.38840367 12.4411376,9.38840367 M12.4411376,10.5981284 C11.9769174,10.5981284 11.5993028,10.2205138 11.5993028,9.75629358 C11.5993028,9.29244037 11.9769174,8.91482569 12.4411376,8.91482569 C12.9051743,8.91482569 13.282789,9.29244037 13.282789,9.75629358 C13.282789,10.2205138 12.9051743,10.5981284 12.4411376,10.5981284 M12.4411376,8.42822018 C11.7084771,8.42822018 11.1125138,9.024 11.1125138,9.75629358 C11.1125138,10.4889541 11.7084771,11.0847339 12.4411376,11.0847339 C13.1736147,11.0847339 13.769578,10.4889541 13.769578,9.75629358 C13.769578,9.024 13.1736147,8.42822018 12.4411376,8.42822018 M12.4411376,11.5583119 C11.4473761,11.5583119 10.6389358,10.7498716 10.6389358,9.75629358 C10.6389358,8.76289908 11.4473761,7.9546422 12.4411376,7.9546422 C13.4347156,7.9546422 14.243156,8.76289908 14.243156,9.75629358 C14.243156,10.7498716 13.4347156,11.5583119 12.4411376,11.5583119" id="Fill-11" fill="#1D1D1B"></path>
                                <path d="M2.31746789,1.38055046 C1.69985321,1.38055046 1.19710092,1.88311927 1.19710092,2.50091743 L1.19710092,17.0119266 C1.19710092,17.6297248 1.69985321,18.1322936 2.31746789,18.1322936 L17.6822385,18.1322936 C18.2998532,18.1322936 18.802422,17.6297248 18.802422,17.0119266 L18.802422,2.50091743 C18.802422,1.88311927 18.2998532,1.38055046 17.6822385,1.38055046 L2.31746789,1.38055046 Z M17.6822385,19.0926606 L2.31746789,19.0926606 C1.17031193,19.0926606 0.236917431,18.1592661 0.236917431,17.0119266 L0.236917431,2.50091743 C0.236917431,1.35357798 1.17031193,0.420183486 2.31746789,0.420183486 L17.6822385,0.420183486 C18.8293945,0.420183486 19.762789,1.35357798 19.762789,2.50091743 L19.762789,17.0119266 C19.762789,18.1592661 18.8293945,19.0926606 17.6822385,19.0926606 Z" id="Fill-13" fill="#1D1D1B"></path>
                                <g id="Group-17" transform="translate(0.000000, 0.063303)">
                                    <mask id="mask-2" fill="white">
                                        <use xlink:href="#path-1"></use>
                                    </mask>
                                    <g id="Clip-16"></g>
                                    <path d="M2.31750459,1.55407339 C1.83034862,1.55407339 1.43401835,1.95040367 1.43401835,2.43755963 L1.43401835,16.9485688 C1.43401835,17.4359083 1.83034862,17.8322385 2.31750459,17.8322385 L17.6820917,17.8322385 C18.1694312,17.8322385 18.5657615,17.4359083 18.5657615,16.9485688 L18.5657615,2.43755963 C18.5657615,1.95040367 18.1694312,1.55407339 17.6820917,1.55407339 L2.31750459,1.55407339 Z M17.6820917,18.3058165 L2.31750459,18.3058165 C1.56924771,18.3058165 0.960440367,17.6970092 0.960440367,16.9485688 L0.960440367,2.43755963 C0.960440367,1.68930275 1.56924771,1.08049541 2.31750459,1.08049541 L17.6820917,1.08049541 C18.4303486,1.08049541 19.0393394,1.68930275 19.0393394,2.43755963 L19.0393394,16.9485688 C19.0393394,17.6970092 18.4303486,18.3058165 17.6820917,18.3058165 Z M2.31750459,0.593706422 C1.30062385,0.593706422 0.473651376,1.42086239 0.473651376,2.43755963 L0.473651376,16.9485688 C0.473651376,17.9652661 1.30062385,18.792422 2.31750459,18.792422 L17.6820917,18.792422 C18.698789,18.792422 19.525945,17.9652661 19.525945,16.9485688 L19.525945,2.43755963 C19.525945,1.42086239 18.698789,0.593706422 17.6820917,0.593706422 L2.31750459,0.593706422 Z M17.6820917,19.266 L2.31750459,19.266 C1.03970642,19.266 7.33944954e-05,18.226367 7.33944954e-05,16.9485688 L7.33944954e-05,2.43755963 C7.33944954e-05,1.15976147 1.03970642,0.12012844 2.31750459,0.12012844 L17.6820917,0.12012844 C18.9598899,0.12012844 19.9995229,1.15976147 19.9995229,2.43755963 L19.9995229,16.9485688 C19.9995229,18.226367 18.9598899,19.266 17.6820917,19.266 Z" id="Fill-15" fill="#1D1D1B" mask="url(#mask-2)"></path>
                                </g>
                            </g>
                        </g>
                    </g>
                </g>
            </g>
        </g>
    </g>
</svg>