<?xml version="1.0" encoding="UTF-8"?>
<svg width="20px" height="19px" viewBox="0 0 20 19" version="1.1" xmlns="http://www.w3.org/2000/svg" xmlns:xlink="http://www.w3.org/1999/xlink">
    <!-- Generator: Sketch 51.3 (57544) - http://www.bohemiancoding.com/sketch -->
    <title>Group 31</title>
    <desc>Created with Sketch.</desc>
    <defs>
        <polygon id="path-1" points="4.58015267e-05 0.109496183 19.9919084 0.109496183 19.9919084 16.1574351 4.58015267e-05 16.1574351"></polygon>
        <polygon id="path-3" points="0 18.3638168 19.9919084 18.3638168 19.9919084 0.152671756 0 0.152671756"></polygon>
    </defs>
    <g id="Welcome" stroke="none" stroke-width="1" fill="none" fill-rule="evenodd">
        <g id="CLanding" transform="translate(-810.000000, -1781.000000)">
            <g id="Rooms" transform="translate(0.000000, 1411.000000)">
                <g id="Group-15" transform="translate(810.000000, 204.000000)">
                    <g id="Group-12" transform="translate(0.000000, 76.000000)">
                        <g id="Group-14">
                            <g id="Group-31" transform="translate(0.000000, 90.535678)">
                                <path d="M6.21705344,18.3638168 L3.32117557,18.3638168 C2.96270229,18.3638168 2.67201527,18.0732824 2.67201527,17.7146565 C2.67201527,17.3560305 2.96270229,17.0654962 3.32117557,17.0654962 L6.21705344,17.0654962 C6.57552672,17.0654962 6.86621374,17.3560305 6.86621374,17.7146565 C6.86621374,18.0732824 6.57552672,18.3638168 6.21705344,18.3638168" id="Fill-1" fill="#1D1D1B"></path>
                                <path d="M16.6708092,18.3638168 L13.774626,18.3638168 C13.4161527,18.3638168 13.1254656,18.0732824 13.1254656,17.7146565 C13.1254656,17.3560305 13.4161527,17.0654962 13.774626,17.0654962 L16.6708092,17.0654962 C17.0292824,17.0654962 17.3199695,17.3560305 17.3199695,17.7146565 C17.3199695,18.0732824 17.0292824,18.3638168 16.6708092,18.3638168" id="Fill-3" fill="#1D1D1B"></path>
                                <g id="Group-7" transform="translate(0.000000, 0.043206)">
                                    <mask id="mask-2" fill="white">
                                        <use xlink:href="#path-1"></use>
                                    </mask>
                                    <g id="Clip-6"></g>
                                    <path d="M2.25638168,1.40781679 C1.7281374,1.40781679 1.29836641,1.83758779 1.29836641,2.36598473 L1.29836641,13.9010992 C1.29836641,14.4293435 1.7281374,14.8591145 2.25638168,14.8591145 L17.7356183,14.8591145 C18.2638626,14.8591145 18.6936336,14.4293435 18.6936336,13.9010992 L18.6936336,2.36598473 C18.6936336,1.83758779 18.2638626,1.40781679 17.7356183,1.40781679 L2.25638168,1.40781679 Z M17.7356183,16.1574351 L2.25638168,16.1574351 C1.01225954,16.1574351 4.58015267e-05,15.1452214 4.58015267e-05,13.9010992 L4.58015267e-05,2.36598473 C4.58015267e-05,1.12170992 1.01225954,0.109496183 2.25638168,0.109496183 L17.7356183,0.109496183 C18.9797405,0.109496183 19.9919542,1.12170992 19.9919542,2.36598473 L19.9919542,13.9010992 C19.9919542,15.1452214 18.9797405,16.1574351 17.7356183,16.1574351 Z" id="Fill-5" fill="#1D1D1B" mask="url(#mask-2)"></path>
                                </g>
                                <path d="M13.7787023,5.96267176 C12.5580916,5.96267176 11.5649618,6.95580153 11.5649618,8.17641221 C11.5649618,9.3970229 12.5580916,10.3901527 13.7787023,10.3901527 C14.9991603,10.3901527 15.9921374,9.3970229 15.9921374,8.17641221 C15.9921374,6.95580153 14.9991603,5.96267176 13.7787023,5.96267176 M13.7787023,11.6884733 C11.8420611,11.6884733 10.2666412,10.1130534 10.2666412,8.17641221 C10.2666412,6.23977099 11.8420611,4.66435115 13.7787023,4.66435115 C15.7150382,4.66435115 17.290458,6.23977099 17.290458,8.17641221 C17.290458,10.1130534 15.7150382,11.6884733 13.7787023,11.6884733" id="Fill-8" fill="#1D1D1B"></path>
                                <path d="M13.2498626,9.39807634 C13.0923053,9.39807634 12.9344427,9.34112977 12.8095573,9.2258626 C12.5461985,8.98250382 12.5298626,8.57181679 12.7730687,8.30845802 L13.8301679,7.16403053 C14.073374,6.90082443 14.4840611,6.88433588 14.7474198,7.12754198 C15.0107786,7.37090076 15.0271145,7.78158779 14.7839084,8.04494656 L13.7269618,9.18937405 C13.5990229,9.32784733 13.4246718,9.39807634 13.2498626,9.39807634" id="Fill-10" fill="#1D1D1B"></path>
                                <mask id="mask-4" fill="white">
                                    <use xlink:href="#path-3"></use>
                                </mask>
                                <g id="Clip-13"></g>
                                <polygon id="Fill-12" fill="#394553" mask="url(#mask-4)" points="3.29526718 6.21419847 3.79526718 6.21419847 3.79526718 5.71419847 3.29526718 5.71419847"></polygon>
                                <polygon id="Fill-14" fill="#1D1D1B" mask="url(#mask-4)" points="2.6459542 6.63984733 4.22076336 6.63984733 4.22076336 5.06503817 2.6459542 5.06503817"></polygon>
                                <polygon id="Fill-15" fill="#394553" mask="url(#mask-4)" points="5.63007634 6.21419847 6.13007634 6.21419847 6.13007634 5.71419847 5.63007634 5.71419847"></polygon>
                                <polygon id="Fill-16" fill="#1D1D1B" mask="url(#mask-4)" points="4.98091603 6.63984733 6.55572519 6.63984733 6.55572519 5.06503817 4.98091603 5.06503817"></polygon>
                                <polygon id="Fill-17" fill="#394553" mask="url(#mask-4)" points="7.96519084 6.21419847 8.46519084 6.21419847 8.46519084 5.71419847 7.96519084 5.71419847"></polygon>
                                <polygon id="Fill-18" fill="#1D1D1B" mask="url(#mask-4)" points="7.31618321 6.63984733 8.89099237 6.63984733 8.89099237 5.06503817 7.31618321 5.06503817"></polygon>
                                <polygon id="Fill-19" fill="#394553" mask="url(#mask-4)" points="3.29526718 8.54259542 3.79526718 8.54259542 3.79526718 8.04259542 3.29526718 8.04259542"></polygon>
                                <polygon id="Fill-20" fill="#1D1D1B" mask="url(#mask-4)" points="2.6459542 8.96824427 4.22076336 8.96824427 4.22076336 7.39343511 2.6459542 7.39343511"></polygon>
                                <polygon id="Fill-21" fill="#394553" mask="url(#mask-4)" points="5.63007634 8.54259542 6.13007634 8.54259542 6.13007634 8.04259542 5.63007634 8.04259542"></polygon>
                                <polygon id="Fill-22" fill="#1D1D1B" mask="url(#mask-4)" points="4.98091603 8.96824427 6.55572519 8.96824427 6.55572519 7.39343511 4.98091603 7.39343511"></polygon>
                                <polygon id="Fill-23" fill="#394553" mask="url(#mask-4)" points="7.96519084 8.54259542 8.46519084 8.54259542 8.46519084 8.04259542 7.96519084 8.04259542"></polygon>
                                <polygon id="Fill-24" fill="#1D1D1B" mask="url(#mask-4)" points="7.31618321 8.96824427 8.89099237 8.96824427 8.89099237 7.39343511 7.31618321 7.39343511"></polygon>
                                <polygon id="Fill-25" fill="#394553" mask="url(#mask-4)" points="3.29526718 10.8708397 3.79526718 10.8708397 3.79526718 10.3708397 3.29526718 10.3708397"></polygon>
                                <polygon id="Fill-26" fill="#1D1D1B" mask="url(#mask-4)" points="2.6459542 11.2966412 4.22076336 11.2966412 4.22076336 9.72183206 2.6459542 9.72183206"></polygon>
                                <polygon id="Fill-27" fill="#394553" mask="url(#mask-4)" points="5.63007634 10.8708397 6.13007634 10.8708397 6.13007634 10.3708397 5.63007634 10.3708397"></polygon>
                                <polygon id="Fill-28" fill="#1D1D1B" mask="url(#mask-4)" points="4.98091603 11.2966412 6.55572519 11.2966412 6.55572519 9.72183206 4.98091603 9.72183206"></polygon>
                                <polygon id="Fill-29" fill="#394553" mask="url(#mask-4)" points="7.96519084 10.8708397 8.46519084 10.8708397 8.46519084 10.3708397 7.96519084 10.3708397"></polygon>
                                <polygon id="Fill-30" fill="#1D1D1B" mask="url(#mask-4)" points="7.31618321 11.2966412 8.89099237 11.2966412 8.89099237 9.72183206 7.31618321 9.72183206"></polygon>
                            </g>
                        </g>
                    </g>
                </g>
            </g>
        </g>
    </g>
</svg>