<svg width="20" height="19" viewBox="0 0 20 19" xmlns="http://www.w3.org/2000/svg" xmlns:xlink="http://www.w3.org/1999/xlink"><defs><path id="a" d="M0 .11h19.992v16.047H0z"/><path id="c" d="M0 18.364h19.992V.153H0z"/></defs><g transform="translate(0 .536)" fill="none" fill-rule="evenodd"><path d="M6.217 18.364H3.321a.65.65 0 110-1.299h2.896a.65.65 0 110 1.299m10.453 0h-2.895a.65.65 0 110-1.299h2.896a.65.65 0 110 1.299" fill="#1D1D1B"/><g transform="translate(0 .043)"><mask id="b" fill="#fff"><use xlink:href="#a"/></mask><path d="M2.256 1.408a.96.96 0 00-.958.958v11.535c0 .528.43.958.958.958h15.48a.96.96 0 00.958-.958V2.366a.96.96 0 00-.958-.958H2.256zm15.48 14.75H2.256A2.259 2.259 0 010 13.9V2.366A2.259 2.259 0 012.256.109h15.48a2.259 2.259 0 012.256 2.257v11.535a2.259 2.259 0 01-2.256 2.256z" fill="#1D1D1B" mask="url(#b)"/></g><path d="M13.779 5.963c-1.22 0-2.214.993-2.214 2.213 0 1.221.993 2.214 2.214 2.214 1.22 0 2.213-.993 2.213-2.214 0-1.22-.993-2.213-2.213-2.213m0 5.725a3.516 3.516 0 01-3.512-3.512 3.516 3.516 0 013.512-3.512 3.516 3.516 0 013.511 3.512 3.516 3.516 0 01-3.511 3.512" fill="#1D1D1B"/><path d="M13.25 9.398a.65.65 0 01-.477-1.09l1.057-1.144a.65.65 0 01.954.88L13.727 9.19a.648.648 0 01-.477.21" fill="#1D1D1B"/><mask id="d" fill="#fff"><use xlink:href="#c"/></mask><path fill="#394553" mask="url(#d)" d="M3.295 6.214h.5v-.5h-.5z"/><path fill="#1D1D1B" mask="url(#d)" d="M2.646 6.64h1.575V5.065H2.646z"/><path fill="#394553" mask="url(#d)" d="M5.63 6.214h.5v-.5h-.5z"/><path fill="#1D1D1B" mask="url(#d)" d="M4.98 6.64h1.576V5.065H4.98z"/><path fill="#394553" mask="url(#d)" d="M7.965 6.214h.5v-.5h-.5z"/><path fill="#1D1D1B" mask="url(#d)" d="M7.316 6.64h1.575V5.065H7.316z"/><path fill="#394553" mask="url(#d)" d="M3.295 8.543h.5v-.5h-.5z"/><path fill="#1D1D1B" mask="url(#d)" d="M2.646 8.968h1.575V7.393H2.646z"/><path fill="#394553" mask="url(#d)" d="M5.63 8.543h.5v-.5h-.5z"/><path fill="#1D1D1B" mask="url(#d)" d="M4.98 8.968h1.576V7.393H4.98z"/><path fill="#394553" mask="url(#d)" d="M7.965 8.543h.5v-.5h-.5z"/><path fill="#1D1D1B" mask="url(#d)" d="M7.316 8.968h1.575V7.393H7.316z"/><path fill="#394553" mask="url(#d)" d="M3.295 10.87h.5v-.5h-.5z"/><path fill="#1D1D1B" mask="url(#d)" d="M2.646 11.297h1.575V9.722H2.646z"/><path fill="#394553" mask="url(#d)" d="M5.63 10.87h.5v-.5h-.5z"/><path fill="#1D1D1B" mask="url(#d)" d="M4.98 11.297h1.576V9.722H4.98z"/><path fill="#394553" mask="url(#d)" d="M7.965 10.87h.5v-.5h-.5z"/><path fill="#1D1D1B" mask="url(#d)" d="M7.316 11.297h1.575V9.722H7.316z"/></g></svg>