<?xml version="1.0" encoding="UTF-8"?>
<svg width="22px" height="19px" viewBox="0 0 22 19" version="1.1" xmlns="http://www.w3.org/2000/svg" xmlns:xlink="http://www.w3.org/1999/xlink">
    <!-- Generator: Sketch 51.3 (57544) - http://www.bohemiancoding.com/sketch -->
    <title>Group 35</title>
    <desc>Created with Sketch.</desc>
    <defs>
        <polygon id="path-1" points="0 0.138274074 17.7963215 0.138274074 17.7963215 15.8073259 0 15.8073259"></polygon>
        <polygon id="path-3" points="0.00464444444 0.0195555556 10.5685556 0.0195555556 10.5685556 6.25738667 0.00464444444 6.25738667"></polygon>
    </defs>
    <g id="Welcome" stroke="none" stroke-width="1" fill="none" fill-rule="evenodd">
        <g id="CLanding" transform="translate(-1035.000000, -1707.000000)">
            <g id="Rooms" transform="translate(0.000000, 1411.000000)">
                <g id="Group-15" transform="translate(810.000000, 204.000000)">
                    <g id="Group-12" transform="translate(0.000000, 76.000000)">
                        <g id="Group-14">
                            <g id="Group-35" transform="translate(225.000000, 16.535678)">
                                <path d="M17.9881778,13.7336059 C17.6858815,13.7336059 17.3826074,13.6972652 17.0871556,13.6257244 C16.812237,13.5590726 16.6425926,13.2812207 16.7090815,13.0063022 C16.7651407,12.7750578 16.9698222,12.6135615 17.2069333,12.6135615 C17.247837,12.6135615 17.2887407,12.6184504 17.3286667,12.6282281 C17.5449185,12.6807022 17.7668741,12.7072652 17.9881778,12.7072652 C19.5311111,12.7072652 20.7864148,11.4521244 20.7864148,9.90902815 C20.7864148,8.36593185 19.5311111,7.11046519 17.9881778,7.11046519 C17.7668741,7.11046519 17.5450815,7.13702815 17.3289926,7.18966519 C17.2889037,7.19928 17.248,7.20416889 17.2072593,7.20416889 C16.9701481,7.20416889 16.7653037,7.04299852 16.7092444,6.81191704 C16.6424296,6.53716148 16.8117481,6.25914667 17.0866667,6.19233185 C17.3827704,6.12046519 17.6860444,6.08412444 17.9881778,6.08412444 C20.0969185,6.08412444 21.8127556,7.79996148 21.8127556,9.90902815 C21.8127556,12.0179319 20.0969185,13.7336059 17.9881778,13.7336059" id="Fill-1" fill="#1D1D1B"></path>
                                <path d="M17.206917,12.6950593 C17.0076133,12.6950593 16.8355244,12.8308074 16.7882652,13.0253852 C16.7323689,13.2566296 16.8749615,13.4904815 17.1063689,13.5467037 C17.3956281,13.6166148 17.6922207,13.6521407 17.9881615,13.6521407 C20.0520874,13.6521407 21.7312578,11.9729704 21.7312578,9.90904444 C21.7312578,7.84495556 20.0520874,6.16562222 17.9881615,6.16562222 C17.6923837,6.16562222 17.3956281,6.20131111 17.10588,6.27154815 C16.8746356,6.32777037 16.7322059,6.56162222 16.7884281,6.7927037 C16.8436726,7.02052593 17.0811096,7.16572593 17.3097467,7.11048148 C17.5321911,7.05637778 17.7605022,7.029 17.9881615,7.029 C19.5760726,7.029 20.86788,8.32097037 20.86788,9.90904444 C20.86788,11.4969556 19.5760726,12.788763 17.9881615,12.788763 C17.7603393,12.788763 17.5320281,12.7613852 17.3094207,12.7074444 C17.2756874,12.6991333 17.2413022,12.6950593 17.206917,12.6950593 M17.9881615,13.8151037 C17.6793467,13.8151037 17.369717,13.7781111 17.0679096,13.7049407 C16.749317,13.6276963 16.5527837,13.3056815 16.6298652,12.9870889 C16.6948874,12.7191778 16.9319985,12.5320963 17.206917,12.5320963 C17.2543393,12.5320963 17.3019244,12.5378 17.348043,12.5490444 C17.5577763,12.6000519 17.7732133,12.6258 17.9881615,12.6258 C19.486117,12.6258 20.704917,11.407163 20.704917,9.90904444 C20.704917,8.41076296 19.486117,7.19196296 17.9881615,7.19196296 C17.7735393,7.19196296 17.5581022,7.21787407 17.3482059,7.26888148 C17.3019244,7.27996296 17.2545022,7.28566667 17.207243,7.28566667 C16.9323244,7.28566667 16.6948874,7.09874815 16.6300281,6.83116296 C16.5526207,6.51273333 16.7488281,6.19071852 17.0674207,6.11314815 C17.36988,6.03981481 17.6795096,6.00265926 17.9881615,6.00265926 C20.14188,6.00265926 21.8942207,7.75516296 21.8942207,9.90904444 C21.8942207,12.0629259 20.14188,13.8151037 17.9881615,13.8151037" id="Fill-3" fill="#1D1D1B"></path>
                                <path d="M17.9881615,6.02641926 C17.6813022,6.02641926 17.3734652,6.06341185 17.0731244,6.13609333 C16.9249911,6.17227111 16.7996726,6.26369333 16.7203096,6.39390074 C16.6409467,6.52410815 16.6171541,6.6774563 16.6531689,6.82558963 C16.7155837,7.08258222 16.9434059,7.26200444 17.207243,7.26200444 C17.2525467,7.26200444 17.2980133,7.2564637 17.3425022,7.24570815 C17.554517,7.19421185 17.7717467,7.16813778 17.9881615,7.16813778 C19.499317,7.16813778 20.7287096,8.39769333 20.7287096,9.90901185 C20.7287096,11.4201674 19.499317,12.64956 17.9881615,12.64956 C17.7714207,12.64956 17.5541911,12.6234859 17.3421763,12.5721526 C17.2978504,12.561397 17.2523837,12.5558563 17.206917,12.5558563 C16.943243,12.5558563 16.7154207,12.7354415 16.6530059,12.992597 C16.5790207,13.2984785 16.7675689,13.6076193 17.0734504,13.6819304 C17.3734652,13.7544489 17.6813022,13.7912785 17.9881615,13.7912785 C20.128843,13.7912785 21.8704281,12.0496933 21.8704281,9.90901185 C21.8704281,7.76816741 20.128843,6.02641926 17.9881615,6.02641926 M17.9881615,6.14196 C20.0652874,6.14196 21.7548874,7.83188593 21.7548874,9.90901185 C21.7548874,11.9861378 20.0652874,13.6757378 17.9881615,13.6757378 C17.6902652,13.6757378 17.391717,13.6400489 17.1006652,13.5696489 C16.8562207,13.5103304 16.7061319,13.2642563 16.7652874,13.0198119 C16.8158059,12.8115452 17.0015837,12.671397 17.206917,12.671397 C17.2426059,12.671397 17.2787837,12.6756341 17.3149615,12.6844341 C17.5359393,12.7378859 17.7624578,12.7651007 17.9881615,12.7651007 C19.5630356,12.7651007 20.8442504,11.4838859 20.8442504,9.90901185 C20.8442504,8.33413778 19.5630356,7.05259704 17.9881615,7.05259704 C17.7627837,7.05259704 17.5362652,7.07981185 17.3152874,7.13358963 C17.2791096,7.14222667 17.2429319,7.1464637 17.207243,7.1464637 C17.0015837,7.1464637 16.8159689,7.00664148 16.7654504,6.79837481 C16.7059689,6.55393037 16.8560578,6.3078563 17.1003393,6.24837481 C17.391717,6.17781185 17.6904281,6.14196 17.9881615,6.14196" id="Fill-5" fill="#1D1D1B"></path>
                                <path d="M17.206917,12.7528296 C17.0343393,12.7528296 16.8852281,12.8704889 16.8443244,13.0389926 C16.7959244,13.2392741 16.9196133,13.441837 17.1198948,13.490563 C17.4047541,13.5593333 17.6967837,13.5943704 17.9881615,13.5943704 C20.0203096,13.5943704 21.6734059,11.9411111 21.6734059,9.90896296 C21.6734059,7.87681481 20.0203096,6.22339259 17.9881615,6.22339259 C17.6967837,6.22339259 17.4045911,6.25842963 17.1195689,6.32752593 C17.0226059,6.35115556 16.9404726,6.41112593 16.8884874,6.49635556 C16.8366652,6.58158519 16.8208578,6.68213333 16.8444874,6.7790963 C16.8923985,6.97628148 17.0961022,7.10306667 17.2960578,7.05434074 C17.5232281,6.9990963 17.7561022,6.97106667 17.9881615,6.97106667 C19.6078504,6.97106667 20.9255689,8.28911111 20.9255689,9.90896296 C20.9255689,11.5288148 19.6078504,12.8465333 17.9881615,12.8465333 C17.7557763,12.8465333 17.5229022,12.8186667 17.2958948,12.7635852 C17.2665615,12.7564148 17.2365763,12.7528296 17.206917,12.7528296 M17.9881615,13.8728741 C17.6749467,13.8728741 17.3607541,13.8352296 17.0542207,13.7610815 C16.7048281,13.6763407 16.4892281,13.323037 16.5738059,12.9734815 C16.6451837,12.6796593 16.9054356,12.4744889 17.206917,12.4744889 C17.2589022,12.4744889 17.3110504,12.4806815 17.3615689,12.4930667 C17.5670652,12.5427704 17.7779393,12.5680296 17.9881615,12.5680296 C19.4543393,12.5680296 20.6472281,11.3751407 20.6472281,9.90896296 C20.6472281,8.44262222 19.4543393,7.24957037 17.9881615,7.24957037 C17.7782652,7.24957037 17.5673911,7.27499259 17.3617319,7.32485926 C17.3110504,7.33724444 17.2590652,7.34343704 17.207243,7.34343704 C16.9055985,7.34343704 16.6451837,7.13842963 16.5739689,6.84493333 C16.5327393,6.67561481 16.560117,6.50042963 16.6507244,6.35148148 C16.7414948,6.2026963 16.8845763,6.09807407 17.0538948,6.05700741 C17.3604281,5.9826963 17.6747837,5.94488889 17.9881615,5.94488889 C20.1738207,5.94488889 21.9519096,7.72314074 21.9519096,9.90896296 C21.9519096,12.0946222 20.1738207,13.8728741 17.9881615,13.8728741" id="Fill-7" fill="#1D1D1B"></path>
                                <path d="M10.0725289,6.1705437 C9.94232148,6.23132889 9.91852889,6.24241037 2.47943259,6.32356593 C1.75457333,6.32356593 1.16546222,6.91055852 1.16546222,7.63199556 L1.16546222,12.1856696 C1.16546222,12.9069437 1.75245481,13.4939363 2.47389185,13.4939363 C9.91836593,13.5752548 9.94215852,13.5861733 10.0739956,13.6477733 L16.6308104,16.4983215 L16.6308104,3.31918074 L10.0725289,6.1705437 Z M16.8014326,17.6041881 C16.654603,17.6041881 16.5061437,17.5689881 16.3604548,17.4997289 L9.73829185,14.6208252 C9.11479556,14.5983363 5.05832148,14.5484696 2.46818815,14.520277 C1.18420296,14.520277 0.139121481,13.4729141 0.139121481,12.1856696 L0.139121481,7.63199556 C0.139121481,6.34458815 1.18664741,5.29738815 2.47389185,5.29738815 C5.06190667,5.26903259 9.11544741,5.21916593 9.73829185,5.19684 L16.3622474,2.31712148 C16.5061437,2.24851407 16.654277,2.21331407 16.8011067,2.21331407 C17.2971659,2.21331407 17.6571511,2.60312148 17.6571511,3.14024741 L17.6571511,16.6777437 C17.6571511,16.9262622 17.5815363,17.1464252 17.4387807,17.3141141 C17.2795659,17.5011956 17.0532104,17.6041881 16.8014326,17.6041881 Z" id="Fill-9" fill="#1D1D1B"></path>
                                <path d="M10.1059363,6.24488741 C9.9563363,6.31479852 9.92064741,6.32392444 2.48024741,6.40508 C1.79987704,6.40508 1.2469437,6.95540593 1.2469437,7.63202815 L1.2469437,12.1857022 C1.2469437,12.8621615 1.79743259,13.4124874 2.47389185,13.4124874 C9.9369437,13.4939689 9.95649926,13.5030948 10.1083807,13.5739837 L16.5493289,16.3741763 L16.5493289,3.44355407 L10.1059363,6.24488741 Z M16.7122919,16.6226948 L10.041403,13.722443 C9.92211407,13.6667096 9.67229185,13.6539985 2.47307704,13.5754504 C1.70747704,13.5754504 1.08398074,12.9519541 1.08398074,12.1857022 L1.08398074,7.63202815 C1.08398074,6.86561333 1.70992148,6.24211704 2.47943259,6.24211704 C9.67261778,6.16356889 9.92195111,6.15085778 10.0379807,6.09675407 L10.0400993,6.0957763 L16.7122919,3.19487259 L16.7122919,16.6226948 Z M16.8011067,2.29482815 C16.6664993,2.29482815 16.5305881,2.32709481 16.3971215,2.39065037 L9.7565437,5.27770222 L9.74122519,5.27819111 C9.11772889,5.30068 5.05408444,5.35070963 2.47470667,5.37890222 C1.23146222,5.37890222 0.220602963,6.38959852 0.220602963,7.63202815 L0.220602963,12.1857022 C0.220602963,13.4279689 1.22885481,14.4388281 2.46818815,14.4388281 C5.04919556,14.4668578 9.11495852,14.5167244 9.74122519,14.5393763 L9.77072148,14.5460578 L16.3928844,17.4249615 C16.7626474,17.6007985 17.1483807,17.5295837 17.3766919,17.2613467 C17.5068993,17.1086504 17.5755067,16.9067393 17.5755067,16.6777763 L17.5755067,3.14028 C17.5755067,2.65041333 17.2499067,2.29482815 16.8011067,2.29482815 Z M16.8012696,17.6857022 C16.6423807,17.6857022 16.4821881,17.6478948 16.3254178,17.5734207 L9.72004,14.7018504 C9.04667704,14.6788726 5.02621778,14.6296578 2.46721037,14.6017911 C1.13906222,14.6017911 0.05764,13.5179244 0.05764,12.1857022 L0.05764,7.63202815 C0.05764,6.29964296 1.14166963,5.21593926 2.47389185,5.21593926 C5.03110667,5.18790963 9.04944741,5.13853185 9.72004,5.11588 L16.3296548,2.24235407 C16.482677,2.16950963 16.6420548,2.13186519 16.8011067,2.13186519 C17.3442622,2.13186519 17.7384696,2.55605778 17.7384696,3.14028 L17.7384696,16.6777763 C17.7384696,16.9460133 17.6563363,17.1842652 17.5007067,17.3671096 C17.3258474,17.5726059 17.0774919,17.6857022 16.8012696,17.6857022 Z" id="Fill-11" fill="#1D1D1B"></path>
                                <path d="M16.5731215,16.4103867 L10.0955067,13.5942237 C9.95063259,13.5264311 9.93172889,13.5176311 2.47519556,13.4363126 C1.78423259,13.4363126 1.22331407,12.8752311 1.22331407,12.1855719 L1.22331407,7.63189778 C1.22331407,6.94240148 1.78651407,6.38132 2.47878074,6.38132 C9.93156593,6.30000148 9.95372889,6.28973481 10.098277,6.22226815 L16.5731215,3.40724593 L16.5731215,16.4103867 Z M16.8011067,2.15569037 C16.645803,2.15569037 16.4890326,2.19268296 16.3355215,2.26569037 L9.72541778,5.13954222 C9.0701437,5.16203111 5.04740296,5.21157185 2.47258815,5.23960148 C1.15470667,5.23960148 0.0815955556,6.31287556 0.0815955556,7.63189778 L0.0815955556,12.1855719 C0.0815955556,13.504757 1.15242519,14.5780311 2.46884,14.5780311 C5.04316593,14.6060607 9.06786222,14.6554385 9.72541778,14.6782533 L16.3391067,17.5535719 C16.4891956,17.6249496 16.6459659,17.6619422 16.8014326,17.6619422 C17.0704844,17.6619422 17.3123215,17.5517793 17.4827807,17.3514978 C17.6344993,17.1733793 17.71484,16.9403422 17.71484,16.6776459 L17.71484,3.14031259 C17.71484,2.56977926 17.3305733,2.15569037 16.8011067,2.15569037 Z M16.6886622,16.5865496 L16.6886622,3.23108296 L10.0495511,6.11764593 C9.92765481,6.17435704 9.71531407,6.18690519 2.47878074,6.26577926 C1.72051407,6.26577926 1.10777333,6.87868296 1.10777333,7.63189778 L1.10777333,12.1855719 C1.10777333,12.9389496 1.72051407,13.5516904 2.47389185,13.5516904 C9.71482519,13.6307274 9.92765481,13.6431126 10.0495511,13.7001496 L16.6886622,16.5865496 Z M16.8011067,2.27106815 C17.2635956,2.27106815 17.5992993,2.63675704 17.5992993,3.14031259 L17.5992993,16.6776459 C17.5992993,16.9123126 17.5285733,17.1196015 17.3947807,17.2766978 C17.2466474,17.4507422 17.0359363,17.5464015 16.8014326,17.5464015 C16.66324,17.5464015 16.5232548,17.51332 16.3852252,17.4476459 L9.75132889,14.5635274 C9.16857333,14.5413644 5.15039556,14.4916607 2.46884,14.4624904 C1.21826222,14.4624904 0.196973333,13.4412015 0.196973333,12.1855719 L0.196973333,7.63189778 C0.196973333,6.37643111 1.21826222,5.35514222 2.47389185,5.35514222 C5.15055852,5.32580889 9.16857333,5.27626815 9.75132889,5.25410519 L16.3852252,2.36998667 C16.5230919,2.30431259 16.663077,2.27106815 16.8011067,2.27106815 Z" id="Fill-13" fill="#1D1D1B"></path>
                                <g id="Group-17" transform="translate(0.000000, 1.936000)">
                                    <mask id="mask-2" fill="white">
                                        <use xlink:href="#path-1"></use>
                                    </mask>
                                    <g id="Clip-16"></g>
                                    <path d="M16.49164,1.59548889 L10.1307067,4.36113333 C9.96725481,4.43723704 9.94998074,4.44538519 2.47959556,4.5267037 C1.83149185,4.5267037 1.30479556,5.05128148 1.30479556,5.69596296 L1.30479556,10.249637 C1.30479556,10.8943185 1.82969926,11.4187333 2.47519556,11.4187333 C9.9501437,11.5002148 9.96366963,11.5065704 10.1300548,11.5843037 L16.49164,14.3501111 L16.49164,1.59548889 Z M16.7699807,14.7747926 L10.0171215,11.8388519 C9.90630667,11.7871926 9.33821778,11.772037 2.47307704,11.697237 C1.6755363,11.697237 1.02629185,11.0478296 1.02629185,10.249637 L1.02629185,5.69596296 C1.02629185,4.89777037 1.67781778,4.24836296 2.47878074,4.24836296 C9.33838074,4.17356296 9.9061437,4.15857037 10.0151659,4.10788889 L16.7699807,1.17080741 L16.7699807,14.7747926 Z M16.8011067,0.416614815 C16.6751363,0.416614815 16.5470474,0.447251852 16.4202622,0.507548148 L9.7697437,3.399 L9.75458815,3.39948889 C9.12489926,3.42344444 4.71740296,3.47608148 2.47470667,3.50052593 C1.26340296,3.50052593 0.278454815,4.48531111 0.278454815,5.69596296 L0.278454815,10.249637 C0.278454815,11.4601259 1.26112148,12.4450741 2.46884,12.4450741 C5.07624741,12.4734296 9.16710667,12.5237852 9.75458815,12.5461111 L9.78392148,12.5527926 L16.4176548,15.4369111 C16.7631363,15.6008519 17.1211659,15.5364815 17.3326919,15.2878 C17.4537733,15.1456963 17.5178178,14.9568222 17.5178178,14.7417111 L17.5178178,1.20437778 C17.5178178,0.747918519 17.2164993,0.416614815 16.8011067,0.416614815 Z M16.8014326,15.8073259 C16.6337437,15.8073259 16.4663807,15.7682148 16.3040696,15.6911333 L9.70716593,12.8231481 C9.00398074,12.8001704 5.00438074,12.7511185 2.46802519,12.7234148 C1.10761037,12.7234148 -4.88888889e-05,11.6138 -4.88888889e-05,10.249637 L-4.88888889e-05,5.69596296 C-4.88888889e-05,4.3318 1.10924,3.22202222 2.47258815,3.22202222 C5.00780296,3.19448148 9.0059363,3.14526667 9.70716593,3.12261481 L16.3030919,0.254955556 C16.465077,0.177874074 16.6335807,0.138274074 16.8011067,0.138274074 C17.3776696,0.138274074 17.7963215,0.586585185 17.7963215,1.20437778 L17.7963215,14.7417111 C17.7963215,15.023963 17.7092993,15.2752519 17.5447067,15.468363 C17.358603,15.6870593 17.0947659,15.8073259 16.8014326,15.8073259 Z" id="Fill-15" fill="#1D1D1B" mask="url(#mask-2)"></path>
                                </g>
                                <path d="M3.91614667,6.2616563 C3.63324296,6.2616563 3.40313926,6.03138963 3.40313926,5.74848593 L3.40313926,2.63670815 C3.40313926,1.3494637 4.45033926,0.302100741 5.73774667,0.302100741 L11.3539393,0.302100741 C12.6413467,0.302100741 13.6885467,1.3494637 13.6885467,2.63670815 L13.6885467,3.92704889 C13.6885467,4.20995259 13.458443,4.4400563 13.1753763,4.4400563 C12.8924726,4.4400563 12.6622059,4.20995259 12.6622059,3.92704889 L12.6622059,2.63670815 C12.6622059,1.91543407 12.0753763,1.32844148 11.3539393,1.32844148 L5.73774667,1.32844148 C5.01614667,1.32844148 4.42931704,1.91543407 4.42931704,2.63670815 L4.42931704,5.74848593 C4.42931704,6.03138963 4.19905037,6.2616563 3.91614667,6.2616563" id="Fill-18" fill="#1D1D1B"></path>
                                <path d="M5.73768148,0.383631111 C4.49525185,0.383631111 3.48455556,1.39449037 3.48455556,2.63675704 L3.48455556,5.74853481 C3.48455556,5.98646074 3.67815556,6.1802237 3.91608148,6.1802237 C4.15417037,6.1802237 4.34777037,5.98646074 4.34777037,5.74853481 L4.34777037,2.63675704 C4.34777037,1.87050519 4.97126667,1.24700889 5.73768148,1.24700889 L11.3538741,1.24700889 C12.1202889,1.24700889 12.7437852,1.87050519 12.7437852,2.63675704 L12.7437852,3.92709778 C12.7437852,4.1650237 12.9373852,4.3586237 13.1754741,4.3586237 C13.4134,4.3586237 13.607163,4.1650237 13.607163,3.92709778 L13.607163,2.63675704 C13.607163,1.39449037 12.5963037,0.383631111 11.3538741,0.383631111 L5.73768148,0.383631111 Z M3.91608148,6.34318667 C3.58836296,6.34318667 3.32159259,6.0764163 3.32159259,5.74853481 L3.32159259,2.63675704 C3.32159259,1.30453481 4.40545926,0.220668148 5.73768148,0.220668148 L11.3538741,0.220668148 C12.6862593,0.220668148 13.7701259,1.30453481 13.7701259,2.63675704 L13.7701259,3.92709778 C13.7701259,4.2548163 13.5033556,4.52158667 13.1754741,4.52158667 C12.8474296,4.52158667 12.5808222,4.2548163 12.5808222,3.92709778 L12.5808222,2.63675704 C12.5808222,1.96029778 12.0304963,1.40997185 11.3538741,1.40997185 L5.73768148,1.40997185 C5.06122222,1.40997185 4.51073333,1.96029778 4.51073333,2.63675704 L4.51073333,5.74853481 C4.51073333,6.0764163 4.24396296,6.34318667 3.91608148,6.34318667 Z" id="Fill-20" fill="#1D1D1B"></path>
                                <path d="M11.3539556,0.244411852 L5.7376,0.244411852 C4.41857778,0.244411852 3.3453037,1.31768593 3.3453037,2.63670815 L3.3453037,5.74848593 C3.3453037,6.06333037 3.60148148,6.31934519 3.91616296,6.31934519 C4.23100741,6.31934519 4.48702222,6.06333037 4.48702222,5.74848593 L4.48702222,2.63670815 C4.48702222,1.94721185 5.0481037,1.38613037 5.7376,1.38613037 L11.3539556,1.38613037 C12.0436148,1.38613037 12.6045333,1.94721185 12.6045333,2.63670815 L12.6045333,3.92704889 C12.6045333,4.24173037 12.8607111,4.49790815 13.1753926,4.49790815 C13.490237,4.49790815 13.7462519,4.24173037 13.7462519,3.92704889 L13.7462519,2.63670815 C13.7462519,1.31768593 12.6731407,0.244411852 11.3539556,0.244411852 M11.3539556,0.359952593 C12.6094222,0.359952593 13.6308741,1.38124148 13.6308741,2.63670815 L13.6308741,3.92704889 C13.6308741,4.17850074 13.4270074,4.38236741 13.1753926,4.38236741 C12.9239407,4.38236741 12.7200741,4.17850074 12.7200741,3.92704889 L12.7200741,2.63670815 C12.7200741,1.88349333 12.1073333,1.27058963 11.3539556,1.27058963 L5.7376,1.27058963 C4.98438519,1.27058963 4.37148148,1.88349333 4.37148148,2.63670815 L4.37148148,5.74848593 C4.37148148,5.99993778 4.16777778,6.20380444 3.91616296,6.20380444 C3.66471111,6.20380444 3.46084444,5.99993778 3.46084444,5.74848593 L3.46084444,2.63670815 C3.46084444,1.38124148 4.48213333,0.359952593 5.7376,0.359952593 L11.3539556,0.359952593" id="Fill-22" fill="#1D1D1B"></path>
                                <g id="Group-26" transform="translate(3.259259, 0.143407)">
                                    <mask id="mask-4" fill="white">
                                        <use xlink:href="#path-3"></use>
                                    </mask>
                                    <g id="Clip-25"></g>
                                    <path d="M2.47842222,0.297994074 C1.26793333,0.297994074 0.282985185,1.28277926 0.282985185,2.49343111 L0.282985185,5.60504593 C0.282985185,5.81119407 0.450837037,5.97888296 0.656985185,5.97888296 C0.863133333,5.97888296 1.03082222,5.81119407 1.03082222,5.60504593 L1.03082222,2.49343111 C1.03082222,1.69507556 1.68022963,1.04566815 2.47842222,1.04566815 L8.09461481,1.04566815 C8.89297037,1.04566815 9.54237778,1.69507556 9.54237778,2.49343111 L9.54237778,3.78360889 C9.54237778,3.98975704 9.71006667,4.15744593 9.91621481,4.15744593 C10.122363,4.15744593 10.2900519,3.98975704 10.2900519,3.78360889 L10.2900519,2.49343111 C10.2900519,1.28277926 9.30526667,0.297994074 8.09461481,0.297994074 L2.47842222,0.297994074 Z M0.656985185,6.25738667 C0.297325926,6.25738667 0.00464444444,5.96470519 0.00464444444,5.60504593 L0.00464444444,2.49343111 C0.00464444444,1.12926815 1.11425926,0.0194903704 2.47842222,0.0194903704 L8.09461481,0.0194903704 C9.45877778,0.0194903704 10.5685556,1.12926815 10.5685556,2.49343111 L10.5685556,3.78360889 C10.5685556,4.14326815 10.2758741,4.43594963 9.91621481,4.43594963 C9.55655556,4.43594963 9.26387407,4.14326815 9.26387407,3.78360889 L9.26387407,2.49343111 C9.26387407,1.84874963 8.7392963,1.32417185 8.09461481,1.32417185 L2.47842222,1.32417185 C1.83374074,1.32417185 1.30932593,1.84874963 1.30932593,2.49343111 L1.30932593,5.60504593 C1.30932593,5.96470519 1.01664444,6.25738667 0.656985185,6.25738667 Z" id="Fill-24" fill="#1D1D1B" mask="url(#mask-4)"></path>
                                </g>
                                <path d="M9.86048148,14.4962237 C9.57757778,14.4962237 9.34747407,14.265957 9.34747407,13.9830533 L9.34747407,5.70323111 C9.34747407,5.42032741 9.57757778,5.1902237 9.86048148,5.1902237 C10.1433852,5.1902237 10.3736519,5.42032741 10.3736519,5.70323111 L10.3736519,13.9830533 C10.3736519,14.265957 10.1433852,14.4962237 9.86048148,14.4962237" id="Fill-27" fill="#1D1D1B"></path>
                                <path d="M9.86044889,5.27164 C9.62252296,5.27164 9.42892296,5.46524 9.42892296,5.70332889 L9.42892296,13.9831511 C9.42892296,14.221077 9.62252296,14.414677 9.86044889,14.414677 C10.0983748,14.414677 10.2921378,14.221077 10.2921378,13.9831511 L10.2921378,5.70332889 C10.2921378,5.46524 10.0983748,5.27164 9.86044889,5.27164 M9.86044889,14.57764 C9.53256741,14.57764 9.26596,14.3110326 9.26596,13.9831511 L9.26596,5.70332889 C9.26596,5.37544741 9.53256741,5.10867704 9.86044889,5.10867704 C10.1883304,5.10867704 10.4551007,5.37544741 10.4551007,5.70332889 L10.4551007,13.9831511 C10.4551007,14.3110326 10.1883304,14.57764 9.86044889,14.57764" id="Fill-29" fill="#1D1D1B"></path>
                                <path d="M9.86051407,5.13240444 C9.54566963,5.13240444 9.28965481,5.38841926 9.28965481,5.7032637 L9.28965481,13.9830859 C9.28965481,14.2979304 9.54566963,14.5539452 9.86051407,14.5539452 C10.1753585,14.5539452 10.4313733,14.2979304 10.4313733,13.9830859 L10.4313733,5.7032637 C10.4313733,5.38841926 10.1753585,5.13240444 9.86051407,5.13240444 M9.86051407,5.24794519 C10.1121289,5.24794519 10.3158326,5.45181185 10.3158326,5.7032637 L10.3158326,13.9830859 C10.3158326,14.2347007 10.1121289,14.4384044 9.86051407,14.4384044 C9.60889926,14.4384044 9.40519556,14.2347007 9.40519556,13.9830859 L9.40519556,5.7032637 C9.40519556,5.45181185 9.60889926,5.24794519 9.86051407,5.24794519" id="Fill-31" fill="#1D1D1B"></path>
                                <path d="M9.86053037,5.32934519 C9.65438222,5.32934519 9.48669333,5.49703407 9.48669333,5.70318222 L9.48669333,13.9831674 C9.48669333,14.1893156 9.65438222,14.3570044 9.86053037,14.3570044 C10.0666785,14.3570044 10.2343674,14.1893156 10.2343674,13.9831674 L10.2343674,5.70318222 C10.2343674,5.49703407 10.0666785,5.32934519 9.86053037,5.32934519 M9.86053037,14.6353452 C9.50087111,14.6353452 9.20818963,14.3428267 9.20818963,13.9831674 L9.20818963,5.70318222 C9.20818963,5.34352296 9.50087111,5.05100444 9.86053037,5.05100444 C10.2201896,5.05100444 10.5128711,5.34352296 10.5128711,5.70318222 L10.5128711,13.9831674 C10.5128711,14.3428267 10.2201896,14.6353452 9.86053037,14.6353452" id="Fill-33" fill="#1D1D1B"></path>
                            </g>
                        </g>
                    </g>
                </g>
            </g>
        </g>
    </g>
</svg>