<svg width="22" height="19" viewBox="0 0 22 19" xmlns="http://www.w3.org/2000/svg" xmlns:xlink="http://www.w3.org/1999/xlink"><defs><path id="a" d="M0 .138h17.796v15.67H0z"/><path id="c" d="M.005.02h10.564v6.237H.005z"/></defs><g fill="none" fill-rule="evenodd"><path d="M17.988 14.27c-.302 0-.605-.037-.9-.109a.514.514 0 01.24-.997 2.801 2.801 0 003.458-2.72 2.802 2.802 0 00-3.457-2.719.511.511 0 01-.62-.378.514.514 0 01.378-.619 3.83 3.83 0 014.726 3.717 3.829 3.829 0 01-3.825 3.824" fill="#1D1D1B"/><path d="M17.207 13.23a.433.433 0 00-.1.852 3.747 3.747 0 004.625-3.638 3.748 3.748 0 00-4.626-3.637.432.432 0 00-.318.521.437.437 0 00.522.318 2.883 2.883 0 013.558 2.799 2.883 2.883 0 01-3.559 2.798.428.428 0 00-.102-.012m.781 1.12a3.91 3.91 0 01-.92-.11.596.596 0 01.28-1.156 2.72 2.72 0 003.357-2.64 2.72 2.72 0 00-3.357-2.64.593.593 0 01-.718-.438.595.595 0 01.437-.718 3.91 3.91 0 014.827 3.796 3.91 3.91 0 01-3.906 3.906" fill="#1D1D1B"/><path d="M17.988 6.562c-.307 0-.615.037-.915.11a.568.568 0 00-.42.69.57.57 0 00.69.42 2.739 2.739 0 013.386 2.663 2.744 2.744 0 01-3.387 2.663.57.57 0 00-.69.42.572.572 0 00.421.69 3.887 3.887 0 004.797-3.773 3.887 3.887 0 00-3.882-3.883m0 .116a3.771 3.771 0 013.767 3.767 3.77 3.77 0 01-4.654 3.66.456.456 0 01.214-.885 2.86 2.86 0 003.53-2.775 2.86 2.86 0 00-3.53-2.776.455.455 0 11-.215-.885c.292-.07.59-.106.888-.106" fill="#1D1D1B"/><path d="M17.207 13.289a.375.375 0 00-.087.738 3.69 3.69 0 004.554-3.582 3.69 3.69 0 00-4.554-3.582.372.372 0 00-.276.452.377.377 0 00.452.275 2.941 2.941 0 013.63 2.855 2.94 2.94 0 01-3.63 2.854.375.375 0 00-.09-.01m.782 1.12a3.99 3.99 0 01-.934-.112.653.653 0 01.308-1.268 2.662 2.662 0 003.286-2.584 2.662 2.662 0 00-3.286-2.584.651.651 0 11-.308-1.268 3.968 3.968 0 014.898 3.852 3.968 3.968 0 01-3.964 3.964" fill="#1D1D1B"/><path d="M10.073 6.706c-.13.061-.154.072-7.594.153-.724 0-1.314.587-1.314 1.309v4.553a1.31 1.31 0 001.309 1.309c7.444.08 7.468.092 7.6.153l6.557 2.851V3.854l-6.558 2.852zM16.8 18.14a1.01 1.01 0 01-.44-.105l-6.623-2.878c-.623-.023-4.68-.073-7.27-.101A2.335 2.335 0 01.14 12.721V8.168a2.337 2.337 0 012.335-2.335c2.588-.028 6.641-.078 7.264-.1l6.624-2.88c.144-.069.292-.104.44-.104.495 0 .855.39.855.927v13.537a.965.965 0 01-.218.637.823.823 0 01-.638.29z" fill="#1D1D1B"/><path d="M10.106 6.78c-.15.07-.185.08-7.626.16-.68 0-1.233.551-1.233 1.228v4.553c0 .677.55 1.227 1.227 1.227 7.463.082 7.482.09 7.634.162l6.441 2.8V3.98l-6.443 2.8zm6.606 10.378l-6.67-2.9c-.12-.056-.37-.068-7.569-.147a1.39 1.39 0 01-1.389-1.39V8.168c0-.767.626-1.39 1.395-1.39 7.194-.079 7.443-.091 7.559-.146h.002l6.672-2.901v13.427zm.09-14.327a.936.936 0 00-.405.095l-6.64 2.887H9.74c-.623.023-4.687.073-7.266.102A2.256 2.256 0 00.22 8.168v4.553a2.253 2.253 0 002.247 2.254c2.581.028 6.647.077 7.273.1l.03.007 6.622 2.879c.37.175.755.104.984-.164a.884.884 0 00.199-.584V3.676c0-.49-.326-.845-.775-.845zm0 15.39a1.1 1.1 0 01-.477-.112L9.72 15.238c-.673-.023-4.694-.073-7.253-.1a2.416 2.416 0 01-2.41-2.417V8.168a2.419 2.419 0 012.417-2.416c2.557-.028 6.575-.078 7.246-.1l6.61-2.874a1.09 1.09 0 01.471-.11c.543 0 .937.424.937 1.008v13.537c0 .269-.082.507-.237.69a.903.903 0 01-.7.318z" fill="#1D1D1B"/><path d="M16.573 16.946l-6.477-2.816c-.145-.068-.164-.077-7.62-.158a1.252 1.252 0 01-1.253-1.25V8.167c0-.69.564-1.251 1.256-1.251 7.453-.081 7.475-.092 7.62-.16l6.474-2.814v13.003zm.228-14.255a1.08 1.08 0 00-.465.11l-6.61 2.874c-.656.023-4.679.072-7.253.1A2.395 2.395 0 00.082 8.168v4.553c0 1.32 1.07 2.393 2.387 2.393 2.574.028 6.599.077 7.256.1l6.614 2.875c.15.072.307.109.462.109a.88.88 0 00.682-.31 1.03 1.03 0 00.232-.675V3.676c0-.57-.384-.985-.914-.985zm-.112 14.431V3.767l-6.64 2.886c-.121.057-.334.07-7.57.148a1.37 1.37 0 00-1.371 1.367v4.553c0 .754.613 1.366 1.366 1.366 7.24.08 7.454.092 7.576.149l6.639 2.886zM16.8 2.807c.463 0 .798.365.798.869v13.537a.91.91 0 01-.204.6.766.766 0 01-.594.27.965.965 0 01-.416-.1L9.751 15.1c-.582-.022-4.6-.072-7.282-.1a2.278 2.278 0 01-2.272-2.28V8.168A2.28 2.28 0 012.474 5.89c2.677-.03 6.695-.08 7.277-.101l6.634-2.884a.964.964 0 01.416-.1z" fill="#1D1D1B"/><g transform="translate(0 2.472)"><mask id="b" fill="#fff"><use xlink:href="#a"/></mask><path d="M16.492 1.595L10.13 4.361c-.164.076-.181.084-7.651.166-.649 0-1.175.524-1.175 1.169v4.554c0 .644.525 1.169 1.17 1.169 7.475.081 7.489.088 7.655.165l6.362 2.766V1.595zm.278 13.18l-6.753-2.936c-.11-.052-.679-.067-7.544-.142a1.45 1.45 0 01-1.447-1.447V5.696c0-.798.652-1.448 1.453-1.448 6.86-.074 7.427-.09 7.536-.14L16.77 1.17v13.604zM16.801.417a.884.884 0 00-.38.09L9.77 3.4h-.015c-.63.024-5.038.077-7.28.102A2.198 2.198 0 00.278 5.696v4.554c0 1.21.983 2.195 2.19 2.195 2.608.028 6.7.079 7.287.101l.029.007 6.634 2.884c.345.164.703.1.915-.15a.827.827 0 00.185-.545V1.204c0-.456-.302-.787-.717-.787zm0 15.39c-.167 0-.335-.039-.497-.116l-6.597-2.868c-.703-.023-4.703-.072-7.239-.1A2.474 2.474 0 010 10.25V5.696a2.476 2.476 0 012.473-2.474c2.535-.028 6.533-.077 7.234-.1L16.303.256c.162-.077.33-.117.498-.117.577 0 .995.449.995 1.066v13.538c0 .282-.087.533-.251.726a.96.96 0 01-.744.34z" fill="#1D1D1B" mask="url(#b)"/></g><path d="M3.916 6.797a.514.514 0 01-.513-.513V3.172A2.337 2.337 0 015.738.838h5.616a2.337 2.337 0 012.335 2.334v1.29a.514.514 0 01-1.027 0v-1.29a1.31 1.31 0 00-1.308-1.308H5.738a1.31 1.31 0 00-1.309 1.308v3.112c0 .283-.23.513-.513.513" fill="#1D1D1B"/><path d="M5.738.92a2.256 2.256 0 00-2.253 2.252v3.112a.432.432 0 00.863 0V3.172c0-.766.623-1.39 1.39-1.39h5.616c.766 0 1.39.624 1.39 1.39v1.29a.432.432 0 00.863 0v-1.29A2.256 2.256 0 0011.354.92H5.738zM3.916 6.878a.595.595 0 01-.594-.595V3.172A2.419 2.419 0 015.738.756h5.616a2.419 2.419 0 012.416 2.416v1.29a.595.595 0 01-1.19 0v-1.29c0-.676-.55-1.226-1.226-1.226H5.738c-.677 0-1.227.55-1.227 1.226v3.112a.595.595 0 01-.595.595z" fill="#1D1D1B"/><path d="M11.354.78H5.738a2.395 2.395 0 00-2.393 2.392v3.112a.572.572 0 001.142 0V3.172c0-.69.561-1.25 1.25-1.25h5.617c.69 0 1.25.56 1.25 1.25v1.29a.572.572 0 001.142 0v-1.29A2.395 2.395 0 0011.354.78m0 .116a2.28 2.28 0 012.277 2.276v1.29a.455.455 0 01-.91 0v-1.29c0-.753-.614-1.366-1.367-1.366H5.738c-.754 0-1.367.613-1.367 1.366v3.112a.455.455 0 11-.91 0V3.172A2.28 2.28 0 015.738.896h5.616" fill="#1D1D1B"/><g transform="translate(3.26 .68)"><mask id="d" fill="#fff"><use xlink:href="#c"/></mask><path d="M2.478.298c-1.21 0-2.195.985-2.195 2.195v3.112a.374.374 0 00.748 0V2.493c0-.798.65-1.447 1.447-1.447h5.617c.798 0 1.447.65 1.447 1.447v1.29a.374.374 0 00.748 0v-1.29c0-1.21-.985-2.195-2.195-2.195H2.478zM.657 6.258a.653.653 0 01-.652-.653V2.493A2.477 2.477 0 012.478.02h5.617a2.477 2.477 0 012.474 2.474v1.29a.653.653 0 01-1.305 0v-1.29a1.17 1.17 0 00-1.17-1.169H2.479a1.17 1.17 0 00-1.169 1.17v3.111c0 .36-.292.652-.652.652z" fill="#1D1D1B" mask="url(#d)"/></g><path d="M9.86 15.032a.514.514 0 01-.513-.513v-8.28a.514.514 0 011.027 0v8.28c0 .283-.23.513-.514.513" fill="#1D1D1B"/><path d="M9.86 5.807a.432.432 0 00-.431.432v8.28a.432.432 0 00.863 0v-8.28a.432.432 0 00-.432-.432m0 9.306a.595.595 0 01-.594-.594v-8.28a.595.595 0 011.19 0v8.28a.595.595 0 01-.596.594" fill="#1D1D1B"/><path d="M9.86 5.668a.571.571 0 00-.57.57v8.28a.571.571 0 001.141 0v-8.28a.571.571 0 00-.57-.57m0 .116c.251 0 .455.203.455.455v8.28a.455.455 0 11-.91 0v-8.28c0-.252.203-.455.455-.455" fill="#1D1D1B"/><path d="M9.86 5.865a.374.374 0 00-.373.374v8.28a.374.374 0 00.747 0v-8.28a.374.374 0 00-.373-.374m0 9.306a.653.653 0 01-.653-.652v-8.28a.653.653 0 011.305 0v8.28c0 .36-.293.652-.652.652" fill="#1D1D1B"/></g></svg>