<?xml version="1.0" encoding="UTF-8"?>
<svg width="17px" height="22px" viewBox="0 0 17 22" version="1.1" xmlns="http://www.w3.org/2000/svg" xmlns:xlink="http://www.w3.org/1999/xlink">
    <!-- Generator: Sketch 51.3 (57544) - http://www.bohemiancoding.com/sketch -->
    <title>Group 18</title>
    <desc>Created with Sketch.</desc>
    <defs>
        <polygon id="path-1" points="0.0847875 0.0871903846 3.93839327 0.0871903846 3.93839327 11.9326923 0.0847875 11.9326923"></polygon>
    </defs>
    <g id="Welcome" stroke="none" stroke-width="1" fill="none" fill-rule="evenodd">
        <g id="CLanding" transform="translate(-810.000000, -1741.000000)">
            <g id="Rooms" transform="translate(0.000000, 1411.000000)">
                <g id="Group-15" transform="translate(810.000000, 204.000000)">
                    <g id="Group-12" transform="translate(0.000000, 76.000000)">
                        <g id="Group-14">
                            <g id="Group-18" transform="translate(0.000000, 50.535678)">
                                <path d="M1.1664125,4.26015096 C1.28345096,5.4924875 1.82843173,6.64963173 2.70948942,7.53068942 C3.72000865,8.54104519 5.06349904,9.09763173 6.49247981,9.09763173 C9.24321058,9.09763173 11.5589702,6.98260288 11.8195279,4.2599875 L1.1664125,4.26015096 Z M6.49247981,10.1241702 C4.78937404,10.1241702 3.18826827,9.46084327 1.98372019,8.25645865 C0.779172115,7.05191058 0.115845192,5.45047788 0.115845192,3.74688173 C0.115845192,3.46392981 0.345999038,3.23377596 0.629114423,3.23377596 L12.3571529,3.2336125 C12.4921721,3.2336125 12.6244125,3.28837212 12.720201,3.38383365 C12.8171337,3.48076635 12.8704221,3.6097375 12.8704221,3.74671827 C12.8704221,7.26326635 10.0095183,10.1241702 6.49297019,10.1241702 L6.49247981,10.1241702 Z" id="Fill-1" fill="#1D1D1B"></path>
                                <path d="M1.29535096,4.3760125 L11.690524,4.37584904 C11.3770048,6.97815673 9.14085096,8.98186827 6.49310096,8.98186827 L6.49244712,8.98186827 C5.09452404,8.98186827 3.77996635,8.43737788 2.79135096,7.4487625 C1.95965865,6.61707019 1.43412981,5.53381058 1.29535096,4.3760125 M12.3572837,3.11768558 L0.629081731,3.11784904 C0.282216346,3.11784904 8.17307692e-05,3.40014712 8.17307692e-05,3.7470125 C-8.17307692e-05,5.48133942 0.675341346,7.11203173 1.90179327,8.33832019 C3.12808173,9.56460865 4.75844712,10.2400317 6.49244712,10.2400317 C10.073399,10.2400317 12.9862837,7.32714712 12.9862837,3.74684904 C12.9862837,3.57881058 12.920899,3.42074327 12.8020625,3.30207019 C12.683226,3.18323365 12.5251587,3.11768558 12.3572837,3.11768558 M11.945524,4.14422404 L1.04051442,4.1443875 C1.13401442,5.45485865 1.68929327,6.67428173 2.6275625,7.61255096 C3.65998558,8.64497404 5.03257212,9.21349327 6.49244712,9.21349327 L6.49310096,9.21349327 C9.37378365,9.21349327 11.7413606,6.97374327 11.945524,4.14422404 M12.3572837,3.34947404 C12.4625529,3.34947404 12.5637356,3.39132019 12.638274,3.46585865 C12.7128125,3.54039712 12.7546587,3.64141635 12.7546587,3.74684904 C12.7544952,7.19948365 9.94557212,10.0082433 6.49310096,10.0082433 L6.49244712,10.0082433 C4.82023558,10.0082433 3.24822596,9.35717596 2.06558173,8.17453173 C0.8829375,6.9918875 0.231543269,5.4193875 0.231706731,3.7470125 C0.231706731,3.52748365 0.409552885,3.34947404 0.629081731,3.34947404 L12.3572837,3.34947404" id="Fill-3" fill="#1D1D1B"></path>
                                <path d="M9.22719135,3.87649038 C8.94423942,3.87649038 8.71408558,3.64633654 8.71408558,3.36322115 C8.71408558,2.77001923 8.48295096,2.21228846 8.06350865,1.79268269 C7.64406635,1.37340385 7.08633558,1.14226923 6.49329712,1.14226923 C5.89976827,1.14226923 5.3420375,1.37340385 4.92275865,1.79268269 C4.50331635,2.21228846 4.27234519,2.77001923 4.27234519,3.36305769 C4.27234519,3.64617308 4.04219135,3.87632692 3.75907596,3.87632692 C3.47612404,3.87632692 3.24597019,3.64617308 3.24597019,3.36305769 C3.24580673,2.49573077 3.58351827,1.68022115 4.19698942,1.06707692 C4.81029712,0.453769231 5.62564327,0.115894231 6.49280673,0.115894231 C7.36062404,0.115894231 8.17597019,0.453769231 8.78927788,1.06707692 C9.40258558,1.68022115 9.74046058,2.49573077 9.74046058,3.36322115 C9.74046058,3.64633654 9.51014327,3.87649038 9.22719135,3.87649038" id="Fill-5" fill="#1D1D1B"></path>
                                <path d="M6.4933625,6.53846154e-05 L6.49303558,6.53846154e-05 C5.59465096,6.53846154e-05 4.75020865,0.349873077 4.11499712,0.985084615 C3.47978558,1.62029615 3.12997788,2.46490192 3.12997788,3.36312308 C3.12997788,3.70998846 3.41227596,3.99212308 3.75914135,3.99212308 C4.10600673,3.99212308 4.38814135,3.70998846 4.38814135,3.36312308 C4.38814135,2.80081538 4.60701635,2.27234423 5.00455481,1.87464231 C5.40209327,1.47710385 5.93056442,1.25822885 6.49287212,1.25822885 C7.05550673,1.25822885 7.58397788,1.47710385 7.98151635,1.87464231 C8.37921827,2.27218077 8.59809327,2.80097885 8.59809327,3.36328654 C8.59809327,3.71015192 8.88039135,3.99228654 9.22725673,3.99228654 C9.57412212,3.99228654 9.85625673,3.71015192 9.85625673,3.36328654 C9.85625673,2.46490192 9.50644904,1.62029615 8.8712375,0.985084615 C8.23602596,0.349873077 7.39142019,6.53846154e-05 6.4933625,6.53846154e-05 M6.4933625,0.231690385 C7.32963173,0.231690385 8.11588173,0.557469231 8.70744904,1.14887308 C9.29885288,1.74027692 9.62463173,2.52669038 9.62463173,3.36328654 C9.62463173,3.58281538 9.44662212,3.76066154 9.22725673,3.76066154 C9.00772788,3.76066154 8.82988173,3.58281538 8.82988173,3.36328654 C8.82988173,2.73919038 8.58681442,2.1522 8.14546827,1.71085385 C7.70412212,1.26967115 7.11729519,1.02660385 6.4933625,1.02660385 L6.49287212,1.02660385 C5.86877596,1.02660385 5.2821125,1.26950769 4.84076635,1.71085385 C4.39942019,2.1522 4.15635288,2.73902692 4.15651635,3.36312308 C4.15651635,3.58248846 3.97867019,3.76049808 3.75914135,3.76049808 C3.5396125,3.76049808 3.36176635,3.58265192 3.36176635,3.36312308 C3.36160288,2.52669038 3.68738173,1.74027692 4.27878558,1.14887308 C4.87018942,0.557469231 5.65643942,0.231690385 6.49270865,0.231690385 L6.49303558,0.231690385 L6.4933625,0.231690385" id="Fill-7" fill="#1D1D1B"></path>
                                <path d="M15.7095365,10.6371615 C14.7925173,10.8694404 14.1404692,11.6968827 14.1404692,12.6552577 L14.1404692,18.0521038 C14.1404692,19.0104788 14.7925173,19.8380846 15.7095365,20.0703635 L15.7095365,10.6371615 Z M16.2228058,21.1606519 C14.5085846,21.1606519 13.1140942,19.7661615 13.1140942,18.0521038 L13.1140942,12.6552577 C13.1140942,10.9412 14.5085846,9.54687308 16.2228058,9.54687308 C16.5057577,9.54687308 16.7359115,9.77702692 16.7359115,10.0599788 L16.7359115,20.6473827 C16.7359115,20.9304981 16.5057577,21.1606519 16.2228058,21.1606519 Z" id="Fill-9" fill="#1D1D1B"></path>
                                <g id="Group-13" transform="translate(12.913462, 9.343788)">
                                    <mask id="mask-2" fill="white">
                                        <use xlink:href="#path-1"></use>
                                    </mask>
                                    <g id="Clip-12"></g>
                                    <path d="M2.68022981,10.5717769 C1.89087404,10.3063154 1.34295096,9.56240192 1.34295096,8.70831538 L1.34295096,3.31146923 C1.34295096,2.45754615 1.89087404,1.71363269 2.68022981,1.44817115 L2.68022981,10.5717769 Z M3.30922981,0.0871903846 C1.53125865,0.0871903846 0.0847875,1.53366154 0.0847875,3.31146923 L0.0847875,8.70831538 C0.0847875,10.4862865 1.53125865,11.9327577 3.30922981,11.9327577 C3.65609519,11.9327577 3.93839327,11.6504596 3.93839327,11.3035942 L3.93839327,0.716190385 C3.93839327,0.369325 3.65609519,0.0871903846 3.30922981,0.0871903846 Z M2.91185481,10.8702577 L2.91185481,1.14969038 C1.8889125,1.33718077 1.1111625,2.23523846 1.1111625,3.31146923 L1.1111625,8.70831538 C1.1111625,9.78454615 1.8889125,10.6827673 2.91185481,10.8702577 Z M3.30922981,0.318815385 C3.52875865,0.318815385 3.70676827,0.496825 3.70676827,0.716190385 L3.70676827,11.3035942 C3.70676827,11.5231231 3.52875865,11.7009692 3.30922981,11.7009692 C1.65908558,11.7009692 0.3164125,10.3584596 0.3164125,8.70831538 L0.3164125,3.31146923 C0.3164125,1.661325 1.65908558,0.318815385 3.30922981,0.318815385 Z" id="Fill-11" fill="#1D1D1B" mask="url(#mask-2)"></path>
                                </g>
                                <path d="M11.4810808,16.4144154 C8.44429231,16.4144154 5.97373462,13.9440212 5.97373462,10.9075596 L5.97373462,9.61081923 C5.97373462,9.32786731 6.20388846,9.09771346 6.48700385,9.09771346 C6.76995577,9.09771346 7.00010962,9.32786731 7.00010962,9.61081923 L7.00010962,10.9075596 C7.00010962,13.3781173 9.01035962,15.3880404 11.4810808,15.3880404 C12.1177635,15.3880404 12.7325423,15.2572712 13.3089077,14.9994923 C13.3752731,14.9699058 13.445725,14.9547038 13.5181385,14.9547038 C13.7203404,14.9547038 13.9042346,15.0738673 13.9869462,15.2584154 C14.04285,15.3834635 14.0467731,15.5228962 13.9978981,15.65105 C13.9490231,15.7790404 13.8532346,15.8803865 13.7280231,15.9364538 C13.0192538,16.2537327 12.2632442,16.4144154 11.4810808,16.4144154" id="Fill-14" fill="#1D1D1B"></path>
                                <path d="M6.48695481,8.98185192 C6.14008942,8.98185192 5.85795481,9.26398654 5.85795481,9.61085192 L5.85795481,10.9074288 C5.85795481,14.0079673 8.38049327,16.5303423 11.4811952,16.5303423 C12.2797048,16.5303423 13.0515702,16.3660635 13.7753779,16.0422462 C13.9287048,15.9735923 14.0462337,15.8493615 14.106224,15.6924385 C14.166051,15.5353519 14.1613106,15.3645346 14.0926567,15.2110442 C13.991474,14.9849769 13.7658971,14.8390058 13.5180894,14.8390058 C13.4293298,14.8390058 13.3430221,14.8573135 13.2616183,14.8937654 C12.7002913,15.1448423 12.1012048,15.2721788 11.4811952,15.2721788 C9.07422404,15.2721788 7.11595481,13.3142365 7.11595481,10.9074288 L7.11595481,9.61085192 C7.11595481,9.26398654 6.83382019,8.98185192 6.48695481,8.98185192 M6.48695481,9.21347692 C6.70648365,9.21347692 6.88432981,9.39132308 6.88432981,9.61085192 L6.88432981,10.9074288 C6.88432981,13.4419 8.94639712,15.5038038 11.4811952,15.5038038 C12.134224,15.5038038 12.7650221,15.3697654 13.356099,15.1052846 C13.4088971,15.0817462 13.4639837,15.0706308 13.5180894,15.0706308 C13.6699452,15.0706308 13.815099,15.1580827 13.8811375,15.3056885 C13.9708779,15.5060923 13.8811375,15.74115 13.6807337,15.8307269 C12.9868394,16.1411404 12.246849,16.2987173 11.4811952,16.2987173 C8.50815673,16.2987173 6.08957981,13.8801404 6.08957981,10.9074288 L6.08957981,9.61085192 C6.08957981,9.39132308 6.26742596,9.21347692 6.48695481,9.21347692" id="Fill-16" fill="#1D1D1B"></path>
                            </g>
                        </g>
                    </g>
                </g>
            </g>
        </g>
    </g>
</svg>