<svg width="17" height="22" viewBox="0 0 17 22" xmlns="http://www.w3.org/2000/svg" xmlns:xlink="http://www.w3.org/1999/xlink"><defs><path id="a" d="M.085.087h3.853v11.846H.085z"/></defs><g fill="none" fill-rule="evenodd"><path d="M1.166 4.796a5.342 5.342 0 001.543 3.27 5.316 5.316 0 003.783 1.567 5.37 5.37 0 005.328-4.837H1.166zm5.326 5.864a6.335 6.335 0 01-4.508-1.868 6.336 6.336 0 01-1.868-4.51c0-.282.23-.513.513-.513h11.728a.51.51 0 01.513.513 6.385 6.385 0 01-6.377 6.378z" fill="#1D1D1B"/><path d="M1.295 4.912h10.396a5.254 5.254 0 01-5.198 4.606A5.2 5.2 0 012.79 7.984a5.228 5.228 0 01-1.496-3.072m11.062-1.259H.63a.63.63 0 00-.629.63 6.45 6.45 0 001.902 4.591 6.45 6.45 0 004.59 1.902 6.5 6.5 0 006.494-6.493.625.625 0 00-.629-.63m-.411 1.027H1.04a5.426 5.426 0 001.587 3.468A5.43 5.43 0 006.492 9.75h.001c2.88 0 5.248-2.24 5.453-5.07m.411-.794a.398.398 0 01.398.398 6.269 6.269 0 01-6.262 6.26A6.22 6.22 0 012.065 8.71 6.22 6.22 0 01.232 4.283c0-.22.178-.398.397-.398h11.728" fill="#1D1D1B"/><path d="M9.227 4.412a.514.514 0 01-.513-.513c0-.593-.231-1.151-.65-1.57a2.207 2.207 0 00-1.57-.651c-.594 0-1.152.231-1.571.65-.42.42-.65.978-.65 1.57a.514.514 0 01-1.027 0c0-.867.338-1.682.951-2.295A3.226 3.226 0 016.493.652c.868 0 1.683.337 2.296.95.614.614.951 1.43.951 2.297 0 .283-.23.513-.513.513" fill="#1D1D1B"/><path d="M6.493.536a3.34 3.34 0 00-2.378.985 3.341 3.341 0 00-.985 2.378.63.63 0 001.258 0c0-.563.219-1.091.617-1.489a2.09 2.09 0 011.488-.616c.563 0 1.091.219 1.489.616.397.398.616.927.616 1.489a.63.63 0 001.258 0c0-.898-.35-1.743-.985-2.378A3.341 3.341 0 006.493.536m0 .231c.837 0 1.623.326 2.214.918.592.591.918 1.377.918 2.214a.397.397 0 01-.795 0c0-.624-.243-1.211-.685-1.652a2.322 2.322 0 00-1.652-.685 2.32 2.32 0 00-1.652.685 2.32 2.32 0 00-.684 1.652.397.397 0 01-.795 0c0-.837.325-1.623.917-2.214A3.11 3.11 0 016.493.767m9.217 10.406a2.082 2.082 0 00-1.57 2.018v5.397c0 .958.653 1.786 1.57 2.018v-9.433zm.513 10.523a3.112 3.112 0 01-3.109-3.108V13.19a3.112 3.112 0 013.109-3.108c.283 0 .513.23.513.513v10.587c0 .283-.23.513-.513.513z" fill="#1D1D1B"/><g transform="translate(12.913 9.88)"><mask id="b" fill="#fff"><use xlink:href="#a"/></mask><path d="M2.68 10.572a1.966 1.966 0 01-1.337-1.864V3.311c0-.853.548-1.597 1.337-1.863v9.124zM3.31.087A3.228 3.228 0 00.084 3.311v5.397a3.228 3.228 0 003.224 3.225.63.63 0 00.63-.63V.717a.63.63 0 00-.63-.629zM2.911 10.87V1.15a2.202 2.202 0 00-1.8 2.161v5.397a2.2 2.2 0 001.8 2.162zM3.309.32c.22 0 .398.178.398.397v10.588c0 .22-.178.397-.398.397A2.996 2.996 0 01.316 8.708V3.311A2.996 2.996 0 013.31.32z" fill="#1D1D1B" mask="url(#b)"/></g><path d="M11.481 16.95a5.513 5.513 0 01-5.507-5.507v-1.297a.514.514 0 011.026 0v1.297a4.486 4.486 0 006.309 4.092.511.511 0 01.678.26.51.51 0 01-.259.677 5.463 5.463 0 01-2.247.478" fill="#1D1D1B"/><path d="M6.487 9.518a.63.63 0 00-.629.629v1.296a5.63 5.63 0 007.917 5.135.626.626 0 00.318-.831.63.63 0 00-.831-.318 4.37 4.37 0 01-6.146-3.986v-1.296a.63.63 0 00-.629-.63m0 .232c.22 0 .397.178.397.398v1.296a4.602 4.602 0 006.472 4.198.397.397 0 11.325.725 5.398 5.398 0 01-7.591-4.923v-1.296c0-.22.177-.398.397-.398" fill="#1D1D1B"/></g></svg>