<svg width="20" height="21" viewBox="0 0 20 21" xmlns="http://www.w3.org/2000/svg" xmlns:xlink="http://www.w3.org/1999/xlink"><defs><path id="a" d="M0 .052h19.942v20.65H0z"/></defs><g fill="none" fill-rule="evenodd"><path d="M7.62 13.592h.771a.558.558 0 000-1.116h-.775v-.918h.775a.558.558 0 000-1.116h-.775v-.917h.775a.558.558 0 000-1.116h-.77a1.068 1.068 0 011.064-1.026h.055c.59 0 1.069.48 1.069 1.07v5.096c0 .59-.48 1.069-1.07 1.069h-.054a1.068 1.068 0 01-1.065-1.026zm1.12 2.142c1.205 0 2.185-.98 2.185-2.185V8.452c0-1.205-.98-2.185-2.185-2.185h-.055c-1.205 0-2.185.98-2.185 2.185v5.097c0 1.205.98 2.185 2.185 2.185h.055zm5.962-9.444a2.93 2.93 0 012.126 2.824c0 1.135-.655 2.15-1.645 2.636l-.48-5.46zm3.242 2.824c0-1.986-1.42-3.65-3.344-3.99l-.156-.015a5.141 5.141 0 00-.967-.006l.706 8.019a5.209 5.209 0 001.151-.222 4.057 4.057 0 002.61-3.786z" fill="#1D1D1B"/><g transform="translate(0 .124)"><mask id="b" fill="#fff"><use xlink:href="#a"/></mask><path d="M14.623 19.585H2.636v-1.189h11.99l-.003 1.19zm5.319-10.592c0-3.173-2.468-5.821-5.538-6.115-.015-.03-.052-.058-.073-.084A7.214 7.214 0 008.682.052c-1.973 0-4.142 1.037-5.566 2.65H.558a.558.558 0 00-.449.89l2.238 3.033-.72 9.709h1.12L3.475 6.5a.557.557 0 00-.107-.373l-1.704-2.31h5.021a.558.558 0 100-1.116H4.723c.997-.817 2.407-1.534 3.96-1.534a6.09 6.09 0 014.643 2.164V3.33l.014.018.011.012c.102.122.505.581 1.258.669l.036.01a5.035 5.035 0 014.18 4.954 5.056 5.056 0 01-2.782 4.496l-.069.033c-.597.333-1.358.441-1.702.487l.289 3.271-13.005.001-.037.633.005 2.234a.558.558 0 00.558.554h13.103a.558.558 0 00.558-.562l-.005-2.291c0-.015 0-.03-.002-.046l-.264-2.898a6.176 6.176 0 004.47-5.912z" fill="#1D1D1B" mask="url(#b)"/></g></g></svg>