<svg xmlns="http://www.w3.org/2000/svg" viewBox="0 0 503.607 503.607"><path d="M478.426 75.54H25.18C11.298 75.54 0 86.837 0 100.72v167.869c0 13.883 11.298 25.18 25.18 25.18h453.246c13.883 0 25.18-11.298 25.18-25.18V100.72c.001-13.883-11.297-25.18-25.18-25.18zM218.23 134.294h67.148c4.642 0 8.393 3.752 8.393 8.393s-3.752 8.393-8.393 8.393H218.23c-4.642 0-8.393-3.752-8.393-8.393s3.751-8.393 8.393-8.393zm243.409 125.901H41.967a8.385 8.385 0 01-8.393-8.393 8.385 8.385 0 018.393-8.393h419.672a8.385 8.385 0 018.393 8.393 8.384 8.384 0 01-8.393 8.393zm0-33.573H41.967a8.385 8.385 0 01-8.393-8.393 8.385 8.385 0 018.393-8.393h419.672a8.385 8.385 0 018.393 8.393 8.384 8.384 0 01-8.393 8.393zM255.663 353.466c-7.672-3.978-12.254-9.031-12.254-13.53s4.583-9.56 12.254-13.539c4.113-2.132 5.724-7.193 3.592-11.306-2.132-4.113-7.202-5.733-11.314-3.592-13.748 7.126-21.319 17.223-21.319 28.437s7.571 21.311 21.319 28.429c7.672 3.979 12.254 9.04 12.254 13.539s-4.583 9.552-12.254 13.53a8.395 8.395 0 00-3.592 11.314 8.397 8.397 0 007.462 4.532 8.276 8.276 0 003.853-.948c13.748-7.118 21.319-17.215 21.319-28.429 0-11.214-7.571-21.311-21.32-28.437zm-92.327 16.787c-7.672-3.979-12.254-9.031-12.254-13.53s4.583-9.56 12.254-13.539c4.113-2.132 5.724-7.193 3.592-11.306-2.132-4.113-7.21-5.741-11.314-3.592-13.748 7.126-21.319 17.223-21.319 28.437s7.571 21.311 21.319 28.429c7.672 3.979 12.254 9.04 12.254 13.539s-4.583 9.552-12.254 13.53a8.395 8.395 0 00-3.592 11.314 8.397 8.397 0 007.462 4.532 8.276 8.276 0 003.853-.948c13.748-7.118 21.319-17.215 21.319-28.429s-7.572-21.311-21.32-28.437zm184.655 0c-7.672-3.979-12.254-9.031-12.254-13.53s4.583-9.56 12.254-13.539c4.113-2.132 5.724-7.193 3.592-11.306-2.132-4.113-7.21-5.741-11.314-3.592-13.748 7.126-21.319 17.223-21.319 28.437s7.571 21.311 21.319 28.429c7.672 3.979 12.254 9.04 12.254 13.539s-4.583 9.552-12.254 13.53a8.395 8.395 0 00-3.592 11.314 8.397 8.397 0 007.462 4.532 8.276 8.276 0 003.853-.948c13.748-7.118 21.319-17.215 21.319-28.429s-7.571-21.311-21.32-28.437z"/></svg>