<?xml version="1.0" encoding="UTF-8"?>
<svg width="30px" height="29px" viewBox="0 0 30 29" version="1.1" xmlns="http://www.w3.org/2000/svg" xmlns:xlink="http://www.w3.org/1999/xlink">
    <!-- Generator: Sketch 51.3 (57544) - http://www.bohemiancoding.com/sketch -->
    <title>Group 6</title>
    <desc>Created with Sketch.</desc>
    <defs>
        <polygon id="path-1" points="0 0.236875 29.9733438 0.236875 29.9733438 28.4375 0 28.4375"></polygon>
    </defs>
    <g id="Welcome" stroke="none" stroke-width="1" fill="none" fill-rule="evenodd">
        <g id="CLanding" transform="translate(-649.000000, -2274.000000)">
            <g id="Facilities" transform="translate(0.000000, 2198.000000)">
                <g id="Group-6" transform="translate(649.000000, 76.000000)">
                    <path d="M14.9879375,4.14746875 C10.9004375,4.14746875 6.7629375,5.45371875 6.7629375,7.95059375 C6.7629375,8.41434375 7.138875,8.79059375 7.6029375,8.79059375 C8.0666875,8.79059375 8.4429375,8.41434375 8.4429375,7.95059375 C8.4429375,7.10528125 11.05325,5.82746875 14.9879375,5.82746875 C18.92075,5.82746875 21.530125,7.10528125 21.530125,7.95059375 C21.530125,8.41434375 21.906375,8.79059375 22.370125,8.79059375 C22.8341875,8.79059375 23.210125,8.41434375 23.210125,7.95059375 C23.210125,5.45371875 19.073875,4.14746875 14.9879375,4.14746875" id="Fill-1" fill="#1D1D1B"></path>
                    <g id="Group-5" transform="translate(0.000000, 0.075719)">
                        <mask id="mask-2" fill="white">
                            <use xlink:href="#path-1"></use>
                        </mask>
                        <g id="Clip-4"></g>
                        <path d="M14.9839688,13.8332188 C7.77240625,13.8332188 1.67990625,11.1044687 1.67990625,7.87478125 C1.67990625,4.64540625 7.77240625,1.91696875 14.9839688,1.91696875 C22.1983437,1.91696875 28.2933438,4.64540625 28.2933438,7.87478125 C28.2933438,11.1044687 22.1983437,13.8332188 14.9839688,13.8332188 M29.3867813,10.0297812 C29.7664688,9.34821875 29.9733438,8.62634375 29.9733438,7.87478125 C29.9733438,3.59165625 23.3892813,0.23665625 14.9839688,0.23665625 C6.58178125,0.23665625 -9.375e-05,3.59165625 -9.375e-05,7.87478125 C-9.375e-05,12.1582187 6.58178125,15.5132188 14.9839688,15.5132188 C20.7739687,15.5132188 25.6992813,13.9207188 28.2039688,11.5300937 C28.2592813,11.7447812 28.2933438,11.9622813 28.2933438,12.1825938 C28.2933438,15.4125937 22.1983437,18.1410312 14.9839688,18.1410312 C8.85834375,18.1410312 3.54240625,16.1719688 2.07990625,13.5994688 C1.25740625,13.0250937 0.56678125,12.4025938 0.02615625,11.7391563 C0.01021875,11.8857187 -9.375e-05,12.0335312 -9.375e-05,12.1825938 C-9.375e-05,16.4660312 6.58178125,19.8210313 14.9839688,19.8210313 C20.7739687,19.8210313 25.6992813,18.2288437 28.2039688,15.8379062 C28.2592813,16.0529063 28.2933438,16.2700938 28.2933438,16.4904062 C28.2933438,19.7204062 22.1983437,22.4491562 14.9839688,22.4491562 C8.88209375,22.4491562 3.58240625,20.4954062 2.09553125,17.9375938 C1.26521875,17.3588437 0.56834375,16.7319688 0.02365625,16.0629062 C0.00896875,16.2041563 -9.375e-05,16.3466562 -9.375e-05,16.4904062 C-9.375e-05,20.7738437 6.58178125,24.1294687 14.9839688,24.1294687 C20.7739687,24.1294687 25.6992813,22.5369687 28.2036563,20.1460312 C28.2592813,20.3613437 28.2933438,20.5788437 28.2933438,20.7994688 C28.2933438,24.0291562 22.1983437,26.7575938 14.9839688,26.7575938 C8.84959375,26.7575938 3.52771875,24.7829062 2.07396875,22.2054062 C1.25459375,21.6319687 0.56615625,21.0113437 0.02678125,20.3497812 C0.01053125,20.4985312 -9.375e-05,20.6482188 -9.375e-05,20.7994688 C-9.375e-05,25.0825938 6.58178125,28.4375937 14.9839688,28.4375937 C23.3892813,28.4375937 29.9733438,25.0825938 29.9733438,20.7994688 C29.9733438,20.0482188 29.7664688,19.3269687 29.3867813,18.6460312 C29.7664688,17.9644687 29.9733438,17.2422812 29.9733438,16.4904062 C29.9733438,15.7394688 29.7664688,15.0182187 29.3867813,14.3375937 C29.7664688,13.6563438 29.9733438,12.9341563 29.9733438,12.1825938 C29.9733438,11.4316562 29.7664688,10.7104062 29.3867813,10.0297812" id="Fill-3" fill="#1D1D1B" mask="url(#mask-2)"></path>
                    </g>
                </g>
            </g>
        </g>
    </g>
</svg>