<svg width="30" height="29" viewBox="0 0 30 29" xmlns="http://www.w3.org/2000/svg" xmlns:xlink="http://www.w3.org/1999/xlink"><defs><path id="a" d="M0 .237h29.973v28.2H0z"/></defs><g fill="none" fill-rule="evenodd"><path d="M14.988 4.147c-4.088 0-8.225 1.307-8.225 3.804a.84.84 0 001.68 0c0-.846 2.61-2.124 6.545-2.124 3.933 0 6.542 1.278 6.542 2.124a.84.84 0 001.68 0c0-2.497-4.136-3.804-8.222-3.804" fill="#1D1D1B"/><g transform="translate(0 .076)"><mask id="b" fill="#fff"><use xlink:href="#a"/></mask><path d="M14.984 13.833c-7.212 0-13.304-2.729-13.304-5.958 0-3.23 6.092-5.958 13.304-5.958 7.214 0 13.31 2.728 13.31 5.958s-6.096 5.958-13.31 5.958m14.403-3.803c.38-.682.586-1.404.586-2.155 0-4.283-6.584-7.638-14.989-7.638C6.582.237 0 3.592 0 7.875c0 4.283 6.582 7.638 14.984 7.638 5.79 0 10.715-1.592 13.22-3.983.055.215.09.432.09.653 0 3.23-6.096 5.958-13.31 5.958-6.126 0-11.442-1.969-12.904-4.542-.823-.574-1.513-1.196-2.054-1.86a4.1 4.1 0 00-.026.444c0 4.283 6.582 7.638 14.984 7.638 5.79 0 10.715-1.592 13.22-3.983.055.215.09.432.09.652 0 3.23-6.096 5.96-13.31 5.96-6.102 0-11.402-1.955-12.888-4.512-.83-.58-1.528-1.206-2.072-1.875A4.13 4.13 0 000 16.49c0 4.284 6.582 7.64 14.984 7.64 5.79 0 10.715-1.593 13.22-3.984.055.215.09.433.09.653 0 3.23-6.096 5.959-13.31 5.959-6.134 0-11.456-1.975-12.91-4.553-.82-.573-1.508-1.194-2.047-1.855A4.135 4.135 0 000 20.8c0 4.283 6.582 7.638 14.984 7.638 8.405 0 14.99-3.355 14.99-7.639 0-.75-.208-1.472-.587-2.153.38-.682.586-1.404.586-2.156 0-.75-.207-1.472-.586-2.152.38-.682.586-1.404.586-2.155 0-.751-.207-1.473-.586-2.153" fill="#1D1D1B" mask="url(#b)"/></g></g></svg>