<?xml version="1.0" encoding="UTF-8"?>
<svg width="46px" height="48px" viewBox="0 0 46 48" version="1.1" xmlns="http://www.w3.org/2000/svg" xmlns:xlink="http://www.w3.org/1999/xlink">
    <!-- Generator: Sketch 51.3 (57544) - http://www.bohemiancoding.com/sketch -->
    <title>Group 21</title>
    <desc>Created with Sketch.</desc>
    <defs></defs>
    <g id="Welcome" stroke="none" stroke-width="1" fill="none" fill-rule="evenodd" stroke-linejoin="round">
        <g id="CLanding" transform="translate(-129.000000, -5202.000000)" stroke="#1D1D1B" stroke-width="2">
            <g id="Transport" transform="translate(130.000000, 5104.000000)">
                <g id="Group-21" transform="translate(0.000000, 99.000000)">
                    <path d="M17,39 L13,46" id="Stroke-1" stroke-linecap="round"></path>
                    <path d="M27,39 L31,46" id="Stroke-3" stroke-linecap="round"></path>
                    <path d="M33,35 C33,37.209 31.209,39 29,39 L15,39 C12.791,39 11,37.209 11,35 L11,14 C11,11.791 12.791,10 15,10 L29,10 C31.209,10 33,11.791 33,14 L33,35 Z" id="Stroke-5"></path>
                    <path d="M11,27 L33,27" id="Stroke-7"></path>
                    <path d="M14,31 L18,31" id="Stroke-9"></path>
                    <path d="M26,31 L30,31" id="Stroke-11"></path>
                    <path d="M7.0014,38.0949 C2.6934,34.0789 0.0004,28.3539 0.0004,21.9999 C0.0004,9.8499 9.8494,-0.0001 22.0004,-0.0001 C34.1504,-0.0001 44.0004,9.8499 44.0004,21.9999 C44.0004,28.3529 41.3064,34.0779 36.9994,38.0939" id="Stroke-13" stroke-linecap="round"></path>
                    <path d="M15,43 L29,43" id="Stroke-15"></path>
                    <path d="M11,15 L33,15" id="Stroke-17"></path>
                    <path d="M22,15 L22,27" id="Stroke-19"></path>
                </g>
            </g>
        </g>
    </g>
</svg>