<svg width="46" height="48" viewBox="0 0 46 48" xmlns="http://www.w3.org/2000/svg"><g stroke="#1D1D1B" stroke-width="2" fill="none" fill-rule="evenodd" stroke-linejoin="round"><path d="M18 40l-4 7m14-7l4 7" stroke-linecap="round"/><path d="M34 36a4 4 0 01-4 4H16a4 4 0 01-4-4V15a4 4 0 014-4h14a4 4 0 014 4v21zm-22-8h22m-19 4h4m8 0h4"/><path d="M8.001 39.095a21.939 21.939 0 01-7-16.095C1 10.85 10.848 1 23 1c12.15 0 22 9.85 22 22a21.942 21.942 0 01-7.002 16.094" stroke-linecap="round"/><path d="M16 44h14M12 16h22m-11 0v12"/></g></svg>