<svg width="30" height="35" viewBox="0 0 30 35" xmlns="http://www.w3.org/2000/svg" xmlns:xlink="http://www.w3.org/1999/xlink"><defs><path id="a" d="M.103.051h2.595v2.596H.103z"/><path id="c" d="M.136.051H2.73v2.596H.136z"/><path id="e" d="M.168.051h2.595v2.596H.168z"/><path id="g" d="M.2.051h2.595v2.596H.201z"/></defs><g fill="none" fill-rule="evenodd"><path d="M2.843 15.472h21.33c-.591-3.773-5.148-6.716-10.664-6.716-5.517 0-10.074 2.943-10.666 6.716m22.23 1.667H1.944a.834.834 0 01-.834-.834c0-5.082 5.562-9.217 12.399-9.217 6.836 0 12.397 4.135 12.397 9.217 0 .46-.373.834-.833.834m1.11 3.394H.833a.834.834 0 010-1.667h25.35a.834.834 0 010 1.667" fill="#000"/><path d="M13.492 8.64a.834.834 0 01-.834-.833V4.15A4.154 4.154 0 0116.808 0h12.105a.834.834 0 010 1.667H16.808a2.485 2.485 0 00-2.483 2.483v3.657c0 .46-.373.833-.833.833m-7.51 15.846a.464.464 0 11-.928 0 .464.464 0 01.928 0" fill="#000"/><path d="M5.519 24.116a.37.37 0 100 .74.37.37 0 000-.74m0 1.668a1.299 1.299 0 010-2.596 1.299 1.299 0 010 2.596m5.79-1.298a.464.464 0 11-.928 0 .464.464 0 01.928 0" fill="#000"/><path d="M10.845 24.116a.37.37 0 100 .74.37.37 0 000-.74m0 1.668a1.299 1.299 0 010-2.596 1.299 1.299 0 010 2.596m5.79-1.298a.464.464 0 11-.928 0 .464.464 0 01.928 0" fill="#000"/><path d="M16.172 24.116a.37.37 0 100 .738.37.37 0 000-.738m0 1.668a1.299 1.299 0 010-2.596 1.299 1.299 0 010 2.596m5.79-1.298a.464.464 0 11-.928 0 .464.464 0 01.928 0" fill="#000"/><path d="M21.498 24.116a.37.37 0 100 .738.37.37 0 000-.738m0 1.668a1.299 1.299 0 010-2.596 1.299 1.299 0 010 2.596M5.982 28.632a.464.464 0 11-.928 0 .464.464 0 01.928 0" fill="#000"/><path d="M5.519 28.262a.37.37 0 100 .74.37.37 0 000-.74m0 1.668a1.299 1.299 0 010-2.596 1.299 1.299 0 010 2.596m5.79-1.298a.464.464 0 11-.928 0 .464.464 0 01.928 0" fill="#000"/><path d="M10.845 28.262a.37.37 0 100 .74.37.37 0 000-.74m0 1.668a1.299 1.299 0 010-2.596 1.299 1.299 0 010 2.596m5.79-1.298a.464.464 0 11-.928 0 .464.464 0 01.928 0" fill="#000"/><path d="M16.172 28.262a.37.37 0 100 .738.37.37 0 000-.738m0 1.668a1.299 1.299 0 010-2.596 1.299 1.299 0 010 2.596m5.79-1.298a.464.464 0 11-.928 0 .464.464 0 01.928 0" fill="#000"/><path d="M21.498 28.262a.37.37 0 100 .738.37.37 0 000-.738m0 1.668a1.299 1.299 0 010-2.596 1.299 1.299 0 010 2.596M5.982 32.778a.464.464 0 11-.928 0 .464.464 0 01.928 0" fill="#000"/><g transform="translate(4.118 31.428)"><mask id="b" fill="#fff"><use xlink:href="#a"/></mask><path d="M1.401.98a.37.37 0 100 .74.37.37 0 000-.74m0 1.667a1.299 1.299 0 010-2.595 1.299 1.299 0 010 2.596" fill="#000" mask="url(#b)"/></g><path d="M11.309 32.778a.464.464 0 11-.928 0 .464.464 0 01.928 0" fill="#B3B8C3"/><g transform="translate(9.412 31.428)"><mask id="d" fill="#fff"><use xlink:href="#c"/></mask><path d="M1.434.98a.37.37 0 100 .74.37.37 0 000-.74m0 1.667a1.299 1.299 0 010-2.595 1.299 1.299 0 010 2.596" fill="#000" mask="url(#d)"/></g><path d="M16.635 32.778a.464.464 0 11-.928 0 .464.464 0 01.928 0" fill="#B3B8C3"/><g transform="translate(14.706 31.428)"><mask id="f" fill="#fff"><use xlink:href="#e"/></mask><path d="M1.466.98a.37.37 0 100 .738.37.37 0 000-.738m0 1.667a1.299 1.299 0 010-2.595 1.299 1.299 0 010 2.595" fill="#000" mask="url(#f)"/></g><path d="M21.962 32.778a.464.464 0 11-.928 0 .464.464 0 01.928 0" fill="#B3B8C3"/><g transform="translate(20 31.428)"><mask id="h" fill="#fff"><use xlink:href="#g"/></mask><path d="M1.498.98a.37.37 0 100 .738.37.37 0 000-.738m0 1.667a1.299 1.299 0 010-2.595 1.299 1.299 0 010 2.595" fill="#000" mask="url(#h)"/></g></g></svg>