<?xml version="1.0" encoding="UTF-8"?>
<svg width="30px" height="35px" viewBox="0 0 30 35" version="1.1" xmlns="http://www.w3.org/2000/svg" xmlns:xlink="http://www.w3.org/1999/xlink">
    <!-- Generator: Sketch 51.3 (57544) - http://www.bohemiancoding.com/sketch -->
    <title>Group 59 Copy</title>
    <desc>Created with Sketch.</desc>
    <defs>
        <polygon id="path-1" points="0.103441176 0.0515 2.69844118 0.0515 2.69844118 2.64705882 0.103441176 2.64705882"></polygon>
        <polygon id="path-3" points="0.135882353 0.0515 2.73088235 0.0515 2.73088235 2.64705882 0.135882353 2.64705882"></polygon>
        <polygon id="path-5" points="0.168205882 0.0515 2.76291176 0.0515 2.76291176 2.64705882 0.168205882 2.64705882"></polygon>
        <polygon id="path-7" points="0.200647059 0.0515 2.79535294 0.0515 2.79535294 2.64705882 0.200647059 2.64705882"></polygon>
    </defs>
    <g id="Welcome" stroke="none" stroke-width="1" fill="none" fill-rule="evenodd">
        <g id="CLanding" transform="translate(-819.000000, -2270.000000)">
            <g id="Facilities" transform="translate(0.000000, 2198.000000)">
                <g id="Group-59-Copy" transform="translate(819.000000, 72.000000)">
                    <path d="M2.84279412,15.4717647 L24.1736765,15.4717647 C23.5819118,11.6994118 19.0248529,8.75558824 13.5086765,8.75558824 C7.99220588,8.75558824 3.43455882,11.6994118 2.84279412,15.4717647 M25.0725,17.1391176 L1.94397059,17.1391176 C1.48367647,17.1391176 1.11044118,16.7658824 1.11044118,16.3052941 C1.11044118,11.2229412 6.67220588,7.08823529 13.5086765,7.08823529 C20.3445588,7.08823529 25.9060294,11.2229412 25.9060294,16.3052941 C25.9060294,16.7658824 25.5327941,17.1391176 25.0725,17.1391176" id="Fill-1" fill="#000000"></path>
                    <path d="M26.1829412,20.5329412 L0.833529412,20.5329412 C0.373235294,20.5329412 0,20.1597059 0,19.6994118 C0,19.2388235 0.373235294,18.8655882 0.833529412,18.8655882 L26.1829412,18.8655882 C26.6432353,18.8655882 27.0164706,19.2388235 27.0164706,19.6994118 C27.0164706,20.1597059 26.6432353,20.5329412 26.1829412,20.5329412" id="Fill-3" fill="#000000"></path>
                    <path d="M13.4919412,8.64029412 C13.0316471,8.64029412 12.6584118,8.26705882 12.6584118,7.80676471 L12.6584118,4.14970588 C12.6584118,1.86147059 14.5198824,0 16.8078235,0 L28.9128235,0 C29.3731176,0 29.7463529,0.373235294 29.7463529,0.833823529 C29.7463529,1.29411765 29.3731176,1.66735294 28.9128235,1.66735294 L16.8078235,1.66735294 C15.4392941,1.66735294 14.3254706,2.78117647 14.3254706,4.14970588 L14.3254706,7.80676471 C14.3254706,8.26705882 13.9522353,8.64029412 13.4919412,8.64029412" id="Fill-5" fill="#000000"></path>
                    <path d="M5.98226471,24.4862941 C5.98226471,24.7430588 5.77579412,24.9501176 5.51873529,24.9501176 C5.26285294,24.9501176 5.05461765,24.7430588 5.05461765,24.4862941 C5.05461765,24.2289412 5.26285294,24.0218824 5.51873529,24.0218824 C5.77579412,24.0218824 5.98226471,24.2289412 5.98226471,24.4862941" id="Fill-7" fill="#000000"></path>
                    <path d="M5.51873529,24.1163529 C5.31461765,24.1163529 5.14873529,24.2822353 5.14873529,24.4863529 C5.14873529,24.6898824 5.31461765,24.8554706 5.51873529,24.8554706 C5.72255882,24.8554706 5.88844118,24.6898824 5.88844118,24.4863529 C5.88844118,24.2822353 5.72255882,24.1163529 5.51873529,24.1163529 M5.51873529,25.7837059 C4.80314706,25.7837059 4.22108824,25.2016471 4.22108824,24.4863529 C4.22108824,23.7704706 4.80314706,23.1881176 5.51873529,23.1881176 C6.23402941,23.1881176 6.81608824,23.7704706 6.81608824,24.4863529 C6.81608824,25.2016471 6.23402941,25.7837059 5.51873529,25.7837059" id="Fill-9" fill="#000000"></path>
                    <path d="M11.3088529,24.4862941 C11.3088529,24.7430588 11.1023824,24.9501176 10.8453235,24.9501176 C10.5894412,24.9501176 10.3812059,24.7430588 10.3812059,24.4862941 C10.3812059,24.2289412 10.5894412,24.0218824 10.8453235,24.0218824 C11.1023824,24.0218824 11.3088529,24.2289412 11.3088529,24.4862941" id="Fill-11" fill="#000000"></path>
                    <path d="M10.8452941,24.1163529 C10.6411765,24.1163529 10.4752941,24.2822353 10.4752941,24.4863529 C10.4752941,24.6898824 10.6411765,24.8554706 10.8452941,24.8554706 C11.0491176,24.8554706 11.215,24.6898824 11.215,24.4863529 C11.215,24.2822353 11.0491176,24.1163529 10.8452941,24.1163529 M10.8452941,25.7837059 C10.1297059,25.7837059 9.54764706,25.2016471 9.54764706,24.4863529 C9.54764706,23.7704706 10.1297059,23.1881176 10.8452941,23.1881176 C11.5605882,23.1881176 12.1426471,23.7704706 12.1426471,24.4863529 C12.1426471,25.2016471 11.5605882,25.7837059 10.8452941,25.7837059" id="Fill-13" fill="#000000"></path>
                    <path d="M16.6352059,24.4862941 C16.6352059,24.7430588 16.4287353,24.9501176 16.1716765,24.9501176 C15.9157941,24.9501176 15.7075588,24.7430588 15.7075588,24.4862941 C15.7075588,24.2289412 15.9157941,24.0218824 16.1716765,24.0218824 C16.4287353,24.0218824 16.6352059,24.2289412 16.6352059,24.4862941" id="Fill-15" fill="#000000"></path>
                    <path d="M16.1717353,24.1163529 C15.9676176,24.1163529 15.8014412,24.2822353 15.8014412,24.4863529 C15.8014412,24.6898824 15.9676176,24.8554706 16.1717353,24.8554706 C16.3755588,24.8554706 16.5414412,24.6898824 16.5414412,24.4863529 C16.5414412,24.2822353 16.3755588,24.1163529 16.1717353,24.1163529 M16.1717353,25.7837059 C15.4561471,25.7837059 14.8740882,25.2016471 14.8740882,24.4863529 C14.8740882,23.7704706 15.4561471,23.1881176 16.1717353,23.1881176 C16.8870294,23.1881176 17.4687941,23.7704706 17.4687941,24.4863529 C17.4687941,25.2016471 16.8870294,25.7837059 16.1717353,25.7837059" id="Fill-17" fill="#000000"></path>
                    <path d="M21.9617941,24.4862941 C21.9617941,24.7430588 21.7553235,24.9501176 21.4982647,24.9501176 C21.2423824,24.9501176 21.0341471,24.7430588 21.0341471,24.4862941 C21.0341471,24.2289412 21.2423824,24.0218824 21.4982647,24.0218824 C21.7553235,24.0218824 21.9617941,24.2289412 21.9617941,24.4862941" id="Fill-19" fill="#000000"></path>
                    <path d="M21.4982941,24.1163529 C21.2941765,24.1163529 21.128,24.2822353 21.128,24.4863529 C21.128,24.6898824 21.2941765,24.8554706 21.4982941,24.8554706 C21.7021176,24.8554706 21.868,24.6898824 21.868,24.4863529 C21.868,24.2822353 21.7021176,24.1163529 21.4982941,24.1163529 M21.4982941,25.7837059 C20.7827059,25.7837059 20.2006471,25.2016471 20.2006471,24.4863529 C20.2006471,23.7704706 20.7827059,23.1881176 21.4982941,23.1881176 C22.2135882,23.1881176 22.7953529,23.7704706 22.7953529,24.4863529 C22.7953529,25.2016471 22.2135882,25.7837059 21.4982941,25.7837059" id="Fill-21" fill="#000000"></path>
                    <path d="M5.98226471,28.6320588 C5.98226471,28.8888235 5.77579412,29.0958824 5.51873529,29.0958824 C5.26285294,29.0958824 5.05461765,28.8888235 5.05461765,28.6320588 C5.05461765,28.3747059 5.26285294,28.1676471 5.51873529,28.1676471 C5.77579412,28.1676471 5.98226471,28.3747059 5.98226471,28.6320588" id="Fill-23" fill="#000000"></path>
                    <path d="M5.51873529,28.2621471 C5.31461765,28.2621471 5.14873529,28.4280294 5.14873529,28.6321471 C5.14873529,28.8356765 5.31461765,29.0012647 5.51873529,29.0012647 C5.72255882,29.0012647 5.88844118,28.8356765 5.88844118,28.6321471 C5.88844118,28.4280294 5.72255882,28.2621471 5.51873529,28.2621471 M5.51873529,29.9295 C4.80314706,29.9295 4.22108824,29.3474412 4.22108824,28.6321471 C4.22108824,27.9162647 4.80314706,27.3339118 5.51873529,27.3339118 C6.23402941,27.3339118 6.81608824,27.9162647 6.81608824,28.6321471 C6.81608824,29.3474412 6.23402941,29.9295 5.51873529,29.9295" id="Fill-25" fill="#000000"></path>
                    <path d="M11.3088529,28.6320588 C11.3088529,28.8888235 11.1023824,29.0958824 10.8453235,29.0958824 C10.5894412,29.0958824 10.3812059,28.8888235 10.3812059,28.6320588 C10.3812059,28.3747059 10.5894412,28.1676471 10.8453235,28.1676471 C11.1023824,28.1676471 11.3088529,28.3747059 11.3088529,28.6320588" id="Fill-27" fill="#000000"></path>
                    <path d="M10.8452941,28.2621471 C10.6411765,28.2621471 10.4752941,28.4280294 10.4752941,28.6321471 C10.4752941,28.8356765 10.6411765,29.0012647 10.8452941,29.0012647 C11.0491176,29.0012647 11.215,28.8356765 11.215,28.6321471 C11.215,28.4280294 11.0491176,28.2621471 10.8452941,28.2621471 M10.8452941,29.9295 C10.1297059,29.9295 9.54764706,29.3474412 9.54764706,28.6321471 C9.54764706,27.9162647 10.1297059,27.3339118 10.8452941,27.3339118 C11.5605882,27.3339118 12.1426471,27.9162647 12.1426471,28.6321471 C12.1426471,29.3474412 11.5605882,29.9295 10.8452941,29.9295" id="Fill-29" fill="#000000"></path>
                    <path d="M16.6352059,28.6320588 C16.6352059,28.8888235 16.4287353,29.0958824 16.1716765,29.0958824 C15.9157941,29.0958824 15.7075588,28.8888235 15.7075588,28.6320588 C15.7075588,28.3747059 15.9157941,28.1676471 16.1716765,28.1676471 C16.4287353,28.1676471 16.6352059,28.3747059 16.6352059,28.6320588" id="Fill-31" fill="#000000"></path>
                    <path d="M16.1717353,28.2621471 C15.9676176,28.2621471 15.8014412,28.4280294 15.8014412,28.6321471 C15.8014412,28.8356765 15.9676176,29.0012647 16.1717353,29.0012647 C16.3755588,29.0012647 16.5414412,28.8356765 16.5414412,28.6321471 C16.5414412,28.4280294 16.3755588,28.2621471 16.1717353,28.2621471 M16.1717353,29.9295 C15.4561471,29.9295 14.8740882,29.3474412 14.8740882,28.6321471 C14.8740882,27.9162647 15.4561471,27.3339118 16.1717353,27.3339118 C16.8870294,27.3339118 17.4687941,27.9162647 17.4687941,28.6321471 C17.4687941,29.3474412 16.8870294,29.9295 16.1717353,29.9295" id="Fill-33" fill="#000000"></path>
                    <path d="M21.9617941,28.6320588 C21.9617941,28.8888235 21.7553235,29.0958824 21.4982647,29.0958824 C21.2423824,29.0958824 21.0341471,28.8888235 21.0341471,28.6320588 C21.0341471,28.3747059 21.2423824,28.1676471 21.4982647,28.1676471 C21.7553235,28.1676471 21.9617941,28.3747059 21.9617941,28.6320588" id="Fill-35" fill="#000000"></path>
                    <path d="M21.4982941,28.2621471 C21.2941765,28.2621471 21.128,28.4280294 21.128,28.6321471 C21.128,28.8356765 21.2941765,29.0012647 21.4982941,29.0012647 C21.7021176,29.0012647 21.868,28.8356765 21.868,28.6321471 C21.868,28.4280294 21.7021176,28.2621471 21.4982941,28.2621471 M21.4982941,29.9295 C20.7827059,29.9295 20.2006471,29.3474412 20.2006471,28.6321471 C20.2006471,27.9162647 20.7827059,27.3339118 21.4982941,27.3339118 C22.2135882,27.3339118 22.7953529,27.9162647 22.7953529,28.6321471 C22.7953529,29.3474412 22.2135882,29.9295 21.4982941,29.9295" id="Fill-37" fill="#000000"></path>
                    <path d="M5.98226471,32.7775588 C5.98226471,33.0343235 5.77579412,33.2413824 5.51873529,33.2413824 C5.26285294,33.2413824 5.05461765,33.0343235 5.05461765,32.7775588 C5.05461765,32.5202059 5.26285294,32.3131471 5.51873529,32.3131471 C5.77579412,32.3131471 5.98226471,32.5202059 5.98226471,32.7775588" id="Fill-39" fill="#000000"></path>
                    <g id="Group-43" transform="translate(4.117647, 31.427941)">
                        <mask id="mask-2" fill="white">
                            <use xlink:href="#path-1"></use>
                        </mask>
                        <g id="Clip-42"></g>
                        <path d="M1.40108824,0.979735294 C1.19697059,0.979735294 1.03108824,1.14561765 1.03108824,1.34973529 C1.03108824,1.55326471 1.19697059,1.71885294 1.40108824,1.71885294 C1.60491176,1.71885294 1.77079412,1.55326471 1.77079412,1.34973529 C1.77079412,1.14561765 1.60491176,0.979735294 1.40108824,0.979735294 M1.40108824,2.64708824 C0.6855,2.64708824 0.103441176,2.06502941 0.103441176,1.34973529 C0.103441176,0.633852941 0.6855,0.0515 1.40108824,0.0515 C2.11638235,0.0515 2.69844118,0.633852941 2.69844118,1.34973529 C2.69844118,2.06502941 2.11638235,2.64708824 1.40108824,2.64708824" id="Fill-41" fill="#000000" mask="url(#mask-2)"></path>
                    </g>
                    <path d="M11.3088529,32.7775588 C11.3088529,33.0343235 11.1023824,33.2413824 10.8453235,33.2413824 C10.5894412,33.2413824 10.3812059,33.0343235 10.3812059,32.7775588 C10.3812059,32.5202059 10.5894412,32.3131471 10.8453235,32.3131471 C11.1023824,32.3131471 11.3088529,32.5202059 11.3088529,32.7775588" id="Fill-44" fill="#B3B8C3"></path>
                    <g id="Group-48" transform="translate(9.411765, 31.427941)">
                        <mask id="mask-4" fill="white">
                            <use xlink:href="#path-3"></use>
                        </mask>
                        <g id="Clip-47"></g>
                        <path d="M1.43352941,0.979735294 C1.22941176,0.979735294 1.06352941,1.14561765 1.06352941,1.34973529 C1.06352941,1.55326471 1.22941176,1.71885294 1.43352941,1.71885294 C1.63735294,1.71885294 1.80323529,1.55326471 1.80323529,1.34973529 C1.80323529,1.14561765 1.63735294,0.979735294 1.43352941,0.979735294 M1.43352941,2.64708824 C0.717941176,2.64708824 0.135882353,2.06502941 0.135882353,1.34973529 C0.135882353,0.633852941 0.717941176,0.0515 1.43352941,0.0515 C2.14882353,0.0515 2.73088235,0.633852941 2.73088235,1.34973529 C2.73088235,2.06502941 2.14882353,2.64708824 1.43352941,2.64708824" id="Fill-46" fill="#000000" mask="url(#mask-4)"></path>
                    </g>
                    <path d="M16.6352059,32.7775588 C16.6352059,33.0343235 16.4287353,33.2413824 16.1716765,33.2413824 C15.9157941,33.2413824 15.7075588,33.0343235 15.7075588,32.7775588 C15.7075588,32.5202059 15.9157941,32.3131471 16.1716765,32.3131471 C16.4287353,32.3131471 16.6352059,32.5202059 16.6352059,32.7775588" id="Fill-49" fill="#B3B8C3"></path>
                    <g id="Group-53" transform="translate(14.705882, 31.427941)">
                        <mask id="mask-6" fill="white">
                            <use xlink:href="#path-5"></use>
                        </mask>
                        <g id="Clip-52"></g>
                        <path d="M1.46585294,0.979735294 C1.26173529,0.979735294 1.09555882,1.14561765 1.09555882,1.34973529 C1.09555882,1.55326471 1.26173529,1.71885294 1.46585294,1.71885294 C1.66967647,1.71885294 1.83555882,1.55326471 1.83555882,1.34973529 C1.83555882,1.14561765 1.66967647,0.979735294 1.46585294,0.979735294 M1.46585294,2.64708824 C0.750264706,2.64708824 0.168205882,2.06502941 0.168205882,1.34973529 C0.168205882,0.633852941 0.750264706,0.0515 1.46585294,0.0515 C2.18114706,0.0515 2.76291176,0.633852941 2.76291176,1.34973529 C2.76291176,2.06502941 2.18114706,2.64708824 1.46585294,2.64708824" id="Fill-51" fill="#000000" mask="url(#mask-6)"></path>
                    </g>
                    <path d="M21.9617941,32.7775588 C21.9617941,33.0343235 21.7553235,33.2413824 21.4982647,33.2413824 C21.2423824,33.2413824 21.0341471,33.0343235 21.0341471,32.7775588 C21.0341471,32.5202059 21.2423824,32.3131471 21.4982647,32.3131471 C21.7553235,32.3131471 21.9617941,32.5202059 21.9617941,32.7775588" id="Fill-54" fill="#B3B8C3"></path>
                    <g id="Group-58" transform="translate(20.000000, 31.427941)">
                        <mask id="mask-8" fill="white">
                            <use xlink:href="#path-7"></use>
                        </mask>
                        <g id="Clip-57"></g>
                        <path d="M1.49829412,0.979735294 C1.29417647,0.979735294 1.128,1.14561765 1.128,1.34973529 C1.128,1.55326471 1.29417647,1.71885294 1.49829412,1.71885294 C1.70211765,1.71885294 1.868,1.55326471 1.868,1.34973529 C1.868,1.14561765 1.70211765,0.979735294 1.49829412,0.979735294 M1.49829412,2.64708824 C0.782705882,2.64708824 0.200647059,2.06502941 0.200647059,1.34973529 C0.200647059,0.633852941 0.782705882,0.0515 1.49829412,0.0515 C2.21358824,0.0515 2.79535294,0.633852941 2.79535294,1.34973529 C2.79535294,2.06502941 2.21358824,2.64708824 1.49829412,2.64708824" id="Fill-56" fill="#000000" mask="url(#mask-8)"></path>
                    </g>
                </g>
            </g>
        </g>
    </g>
</svg>