<svg width="46" height="34" viewBox="0 0 46 34" xmlns="http://www.w3.org/2000/svg"><g stroke="#1D1D1B" stroke-width="2" fill="none" fill-rule="evenodd"><path d="M7 19l2 2h5"/><path d="M5 28v4a1 1 0 001 1h7a1 1 0 001-1v-1" stroke-linejoin="round"/><path d="M44 11h-5l-2 3-3 1H12l-3-1-2-3H2a1 1 0 00-1 1v2a1 1 0 001 1l4 1-.992 1.488A6.003 6.003 0 004 20.817V26a3 3 0 003 3h32a3 3 0 003-3v-5.183a6.003 6.003 0 00-1.008-3.329L40 16l4-1a1 1 0 001-1v-2a1 1 0 00-1-1z" stroke-linecap="round" stroke-linejoin="round"/><path d="M38 13s-2.54-5.455-3-6c-.46-.545-1.3-1-2-1H13c-.7 0-1.54.455-2 1-.46.545-3 6-3 6m31 6l-2 2h-5"/><path d="M41 28v4a1 1 0 01-1 1h-7a1 1 0 01-1-1v-1" stroke-linejoin="round"/><path d="M14 25h18"/><path stroke-linejoin="round" d="M30 6l-2-5H18l-2 5z"/></g></svg>